<?xml version="1.0" encoding="UTF-8"?>
<svg height="16px" viewBox="0 0 16 16" width="16px" xmlns="http://www.w3.org/2000/svg" xmlns:xlink="http://www.w3.org/1999/xlink">
    <filter id="a" height="100%" width="100%" x="0%" y="0%">
        <feColorMatrix in="SourceGraphic" type="matrix" values="0 0 0 0 1 0 0 0 0 1 0 0 0 0 1 0 0 0 1 0"/>
    </filter>
    <mask id="b">
        <g filter="url(#a)">
            <rect fill-opacity="0.5" height="16" width="16"/>
        </g>
    </mask>
    <clipPath id="c">
        <rect height="152" width="192"/>
    </clipPath>
    <mask id="d">
        <g filter="url(#a)">
            <rect fill-opacity="0.5" height="16" width="16"/>
        </g>
    </mask>
    <clipPath id="e">
        <rect height="152" width="192"/>
    </clipPath>
    <mask id="f">
        <g filter="url(#a)">
            <rect fill-opacity="0.5" height="16" width="16"/>
        </g>
    </mask>
    <clipPath id="g">
        <rect height="152" width="192"/>
    </clipPath>
    <mask id="h">
        <g filter="url(#a)">
            <rect fill-opacity="0.5" height="16" width="16"/>
        </g>
    </mask>
    <clipPath id="i">
        <rect height="152" width="192"/>
    </clipPath>
    <mask id="j">
        <g filter="url(#a)">
            <rect fill-opacity="0.5" height="16" width="16"/>
        </g>
    </mask>
    <clipPath id="k">
        <rect height="152" width="192"/>
    </clipPath>
    <mask id="l">
        <g filter="url(#a)">
            <rect fill-opacity="0.5" height="16" width="16"/>
        </g>
    </mask>
    <clipPath id="m">
        <rect height="152" width="192"/>
    </clipPath>
    <mask id="n">
        <g filter="url(#a)">
            <rect fill-opacity="0.5" height="16" width="16"/>
        </g>
    </mask>
    <clipPath id="o">
        <rect height="152" width="192"/>
    </clipPath>
    <mask id="p">
        <g filter="url(#a)">
            <rect fill-opacity="0.5" height="16" width="16"/>
        </g>
    </mask>
    <clipPath id="q">
        <rect height="152" width="192"/>
    </clipPath>
    <mask id="r">
        <g filter="url(#a)">
            <rect fill-opacity="0.5" height="16" width="16"/>
        </g>
    </mask>
    <clipPath id="s">
        <rect height="152" width="192"/>
    </clipPath>
    <mask id="t">
        <g filter="url(#a)">
            <rect fill-opacity="0.5" height="16" width="16"/>
        </g>
    </mask>
    <clipPath id="u">
        <rect height="152" width="192"/>
    </clipPath>
    <mask id="v">
        <g filter="url(#a)">
            <rect fill-opacity="0.5" height="16" width="16"/>
        </g>
    </mask>
    <clipPath id="w">
        <rect height="152" width="192"/>
    </clipPath>
    <g clip-path="url(#c)" mask="url(#b)" transform="matrix(1 0 0 1 -168 -16)">
        <path d="m 35.757812 79.621094 c -0.582031 0 -1.054687 0.472656 -1.054687 1.054687 c 0 0.820313 -0.664063 1.484375 -1.484375 1.488281 c -0.582031 0 -1.054688 0.46875 -1.054688 1.054688 c 0 0.582031 0.472657 1.054688 1.054688 1.054688 c 0.820312 0 1.484375 0.664062 1.484375 1.484374 c 0 0.582032 0.472656 1.054688 1.054687 1.054688 c 0.523438 0 0.832032 -0.382812 0.945313 -1.40625 c 0.011719 -1.3125 1.597656 -1.132812 1.597656 -1.132812 c 0.582031 0 1.054688 -0.472657 1.054688 -1.054688 c 0 -0.585938 -0.472657 -1.054688 -1.054688 -1.054688 c -0.820312 -0.003906 -1.488281 -0.667968 -1.488281 -1.488281 c 0 -0.582031 -0.472656 -1.054687 -1.054688 -1.054687 z m 0 0" fill="#ffffff"/>
    </g>
    <g clip-path="url(#e)" mask="url(#d)" transform="matrix(1 0 0 1 -168 -16)">
        <path d="m 90.109375 117.140625 c 0 0.351563 -0.289063 0.640625 -0.640625 0.640625 c -0.355469 0 -0.640625 -0.289062 -0.640625 -0.640625 c 0 -0.355469 0.285156 -0.640625 0.640625 -0.640625 c 0.351562 0 0.640625 0.285156 0.640625 0.640625 z m 0 0" fill="#ffffff"/>
    </g>
    <g clip-path="url(#g)" mask="url(#f)" transform="matrix(1 0 0 1 -168 -16)">
        <path d="m 39.25 103.707031 c 0 0.75 -0.609375 1.355469 -1.359375 1.355469 s -1.355469 -0.605469 -1.355469 -1.355469 s 0.605469 -1.359375 1.355469 -1.359375 s 1.359375 0.609375 1.359375 1.359375 z m 0 0" fill="#ffffff"/>
    </g>
    <g clip-path="url(#i)" mask="url(#h)" transform="matrix(1 0 0 1 -168 -16)">
        <path d="m 74 112 c 0 0.75 -0.609375 1.359375 -1.359375 1.359375 s -1.355469 -0.609375 -1.355469 -1.359375 s 0.605469 -1.359375 1.355469 -1.359375 s 1.359375 0.609375 1.359375 1.359375 z m 0 0" fill="#ffffff"/>
    </g>
    <g clip-path="url(#k)" mask="url(#j)" transform="matrix(1 0 0 1 -168 -16)">
        <path d="m 80.882812 101.050781 c 0 0.257813 -0.210937 0.46875 -0.46875 0.46875 c -0.257812 0 -0.464843 -0.210937 -0.464843 -0.46875 c 0 -0.257812 0.207031 -0.464843 0.464843 -0.464843 c 0.257813 0 0.46875 0.207031 0.46875 0.464843 z m 0 0" fill="#ffffff"/>
    </g>
    <g clip-path="url(#m)" mask="url(#l)" transform="matrix(1 0 0 1 -168 -16)">
        <path d="m 66.464844 121.519531 c 0 0.75 -0.605469 1.359375 -1.355469 1.359375 s -1.359375 -0.609375 -1.359375 -1.359375 s 0.609375 -1.355469 1.359375 -1.355469 s 1.355469 0.605469 1.355469 1.355469 z m 0 0" fill="#ffffff"/>
    </g>
    <g clip-path="url(#o)" mask="url(#n)" transform="matrix(1 0 0 1 -168 -16)">
        <path d="m 107.757812 91.621094 c -0.582031 0 -1.054687 0.472656 -1.054687 1.054687 c 0 0.820313 -0.664063 1.484375 -1.484375 1.488281 c -0.582031 0 -1.054688 0.46875 -1.054688 1.054688 c 0 0.582031 0.472657 1.054688 1.054688 1.054688 c 0.820312 0 1.484375 0.664062 1.484375 1.484374 c 0 0.582032 0.472656 1.054688 1.054687 1.054688 c 0.523438 0 0.832032 -0.382812 0.945313 -1.40625 c 0.011719 -1.3125 1.597656 -1.132812 1.597656 -1.132812 c 0.582031 0 1.054688 -0.472657 1.054688 -1.054688 c 0 -0.585938 -0.472657 -1.054688 -1.054688 -1.054688 c -0.820312 -0.003906 -1.488281 -0.667968 -1.488281 -1.488281 c 0 -0.582031 -0.472656 -1.054687 -1.054688 -1.054687 z m 0 0" fill="#ffffff"/>
    </g>
    <g clip-path="url(#q)" mask="url(#p)" transform="matrix(1 0 0 1 -168 -16)">
        <path d="m 54 52 c 0 0.75 -0.609375 1.359375 -1.359375 1.359375 s -1.355469 -0.609375 -1.355469 -1.359375 s 0.605469 -1.359375 1.355469 -1.359375 s 1.359375 0.609375 1.359375 1.359375 z m 0 0" fill="#ffffff"/>
    </g>
    <g clip-path="url(#s)" mask="url(#r)" transform="matrix(1 0 0 1 -168 -16)">
        <path d="m 110.109375 77.140625 c 0 0.351563 -0.289063 0.640625 -0.640625 0.640625 c -0.355469 0 -0.640625 -0.289062 -0.640625 -0.640625 c 0 -0.355469 0.285156 -0.640625 0.640625 -0.640625 c 0.351562 0 0.640625 0.285156 0.640625 0.640625 z m 0 0" fill="#ffffff"/>
    </g>
    <g clip-path="url(#u)" mask="url(#t)" transform="matrix(1 0 0 1 -168 -16)">
        <path d="m 36.109375 63.140625 c 0 0.351563 -0.289063 0.640625 -0.640625 0.640625 c -0.355469 0 -0.640625 -0.289062 -0.640625 -0.640625 c 0 -0.355469 0.285156 -0.640625 0.640625 -0.640625 c 0.351562 0 0.640625 0.285156 0.640625 0.640625 z m 0 0" fill="#ffffff"/>
    </g>
    <g clip-path="url(#w)" mask="url(#v)" transform="matrix(1 0 0 1 -168 -16)">
        <path d="m 70 48 c 0 0.75 -0.609375 1.359375 -1.359375 1.359375 s -1.355469 -0.609375 -1.355469 -1.359375 s 0.605469 -1.359375 1.355469 -1.359375 s 1.359375 0.609375 1.359375 1.359375 z m 0 0" fill="#ffffff"/>
    </g>
    <path d="m 4 0 c -1.089844 0 -2 0.910156 -2 2 v 12 c 0 1.089844 0.910156 2 2 2 h 8 c 1.089844 0 2 -0.910156 2 -2 v -4.535156 l -2 0.496094 v 3.039062 h -8 v -11 h 10 c 0 -1.089844 -0.910156 -2 -2 -2 z m 10.140625 2.722656 c -0.539063 0.011719 -1.191406 0.179688 -1.941406 0.570313 l -3.242188 1.910156 c -0.25 -1.632813 -3.269531 -1.425781 -3.371093 0.84375 l 1.832031 0.320313 c -0.15625 0.113281 -0.613281 0.5 -0.730469 0.597656 c -0.941406 0.800781 -0.675781 1.355468 -0.394531 1.839844 c 0.277343 0.484374 0.71875 0.667968 1.5625 0.484374 c 0.144531 -0.03125 0.8125 -0.289062 0.96875 -0.351562 l -0.753907 1.855469 c 2.324219 0.914062 3.660157 -1.226563 2.515626 -2.441407 l 3.421874 -1.492187 c 2.757813 -1.230469 2.476563 -4.179687 0.132813 -4.136719 z m -1.140625 1.453125 c 0.554688 0 1 0.449219 1 1 c 0 0.554688 -0.445312 1 -1 1 c -0.550781 0 -1 -0.445312 -1 -1 c 0 -0.550781 0.449219 -1 1 -1 z m 0 0" fill="#241f31"/>
</svg>
