<?xml version="1.0" encoding="UTF-8"?>
<svg height="128px" viewBox="0 0 128 128" width="128px" xmlns="http://www.w3.org/2000/svg" xmlns:xlink="http://www.w3.org/1999/xlink">
    <linearGradient id="a" gradientTransform="matrix(0.805622 0 0 0.838445 0.304433 -129.24313)" gradientUnits="userSpaceOnUse" x1="40.319336" x2="88" y1="269.103516" y2="156">
        <stop offset="0"/>
        <stop offset="1" stop-color="#5e5c64"/>
    </linearGradient>
    <clipPath id="b">
        <path d="m 39 60 h 36 v 48 h -36 z m 0 0"/>
    </clipPath>
    <clipPath id="c">
        <path d="m 72.507812 80.238281 c -9.15625 14.238281 -32.988281 27.035157 -32.988281 27.035157 s 1.730469 -26.960938 10.902344 -41.230469 c 3.921875 -6.097657 12.042969 -7.863281 18.140625 -3.941407 c 6.097656 3.917969 7.863281 12.039063 3.945312 18.136719 z m 0 0"/>
    </clipPath>
    <linearGradient id="d" gradientTransform="matrix(0.206079 0.132491 -0.132491 0.206079 38.809095 -186.405948)" gradientUnits="userSpaceOnUse" x1="650.637085" x2="650.637085" y1="826.853516" y2="1043.787109">
        <stop offset="0" stop-color="#e01b24"/>
        <stop offset="1" stop-color="#e01b24" stop-opacity="0"/>
    </linearGradient>
    <clipPath id="e">
        <path d="m 39 60 h 36 v 34 h -36 z m 0 0"/>
    </clipPath>
    <clipPath id="f">
        <path d="m 72.507812 80.238281 c -9.15625 14.238281 -32.988281 27.035157 -32.988281 27.035157 s 1.730469 -26.960938 10.902344 -41.230469 c 3.921875 -6.097657 12.042969 -7.863281 18.140625 -3.941407 c 6.097656 3.917969 7.863281 12.039063 3.945312 18.136719 z m 0 0"/>
    </clipPath>
    <radialGradient id="g" cx="650.699768" cy="832.230469" gradientTransform="matrix(0.5103 0.32808 -0.32808 0.5103 5.47218 -569.7275)" gradientUnits="userSpaceOnUse" r="41.388672">
        <stop offset="0" stop-color="#e5a50a"/>
        <stop offset="1" stop-color="#e5a50a" stop-opacity="0"/>
    </radialGradient>
    <clipPath id="h">
        <path d="m 49 60 h 26 v 24 h -26 z m 0 0"/>
    </clipPath>
    <clipPath id="i">
        <path d="m 72.507812 80.238281 c -9.15625 14.238281 -32.988281 27.035157 -32.988281 27.035157 s 1.730469 -26.960938 10.902344 -41.230469 c 3.921875 -6.097657 12.042969 -7.863281 18.140625 -3.941407 c 6.097656 3.917969 7.863281 12.039063 3.945312 18.136719 z m 0 0"/>
    </clipPath>
    <radialGradient id="j" cx="650.699768" cy="818.305176" gradientTransform="matrix(0.551304 0.354442 -0.354442 0.551304 -4.205415 -613.328602)" gradientUnits="userSpaceOnUse" r="22.805021">
        <stop offset="0" stop-color="#ffffff"/>
        <stop offset="1" stop-color="#ffffff" stop-opacity="0"/>
    </radialGradient>
    <clipPath id="k">
        <path d="m 59 63 h 11 v 11 h -11 z m 0 0"/>
    </clipPath>
    <clipPath id="l">
        <path d="m 72.507812 80.238281 c -9.15625 14.238281 -32.988281 27.035157 -32.988281 27.035157 s 1.730469 -26.960938 10.902344 -41.230469 c 3.921875 -6.097657 12.042969 -7.863281 18.140625 -3.941407 c 6.097656 3.917969 7.863281 12.039063 3.945312 18.136719 z m 0 0"/>
    </clipPath>
    <filter id="m" height="100%" width="100%" x="0%" y="0%">
        <feColorMatrix in="SourceGraphic" type="matrix" values="0 0 0 0 1 0 0 0 0 1 0 0 0 0 1 0 0 0 1 0"/>
    </filter>
    <mask id="n">
        <g filter="url(#m)">
            <rect fill-opacity="0.5" height="128" width="128"/>
        </g>
    </mask>
    <clipPath id="o">
        <rect height="152" width="192"/>
    </clipPath>
    <mask id="p">
        <g filter="url(#m)">
            <rect fill-opacity="0.5" height="128" width="128"/>
        </g>
    </mask>
    <clipPath id="q">
        <rect height="152" width="192"/>
    </clipPath>
    <mask id="r">
        <g filter="url(#m)">
            <rect fill-opacity="0.5" height="128" width="128"/>
        </g>
    </mask>
    <clipPath id="s">
        <rect height="152" width="192"/>
    </clipPath>
    <mask id="t">
        <g filter="url(#m)">
            <rect fill-opacity="0.5" height="128" width="128"/>
        </g>
    </mask>
    <clipPath id="u">
        <rect height="152" width="192"/>
    </clipPath>
    <mask id="v">
        <g filter="url(#m)">
            <rect fill-opacity="0.5" height="128" width="128"/>
        </g>
    </mask>
    <clipPath id="w">
        <rect height="152" width="192"/>
    </clipPath>
    <mask id="x">
        <g filter="url(#m)">
            <rect fill-opacity="0.5" height="128" width="128"/>
        </g>
    </mask>
    <clipPath id="y">
        <rect height="152" width="192"/>
    </clipPath>
    <mask id="z">
        <g filter="url(#m)">
            <rect fill-opacity="0.5" height="128" width="128"/>
        </g>
    </mask>
    <clipPath id="A">
        <rect height="152" width="192"/>
    </clipPath>
    <mask id="B">
        <g filter="url(#m)">
            <rect fill-opacity="0.5" height="128" width="128"/>
        </g>
    </mask>
    <clipPath id="C">
        <rect height="152" width="192"/>
    </clipPath>
    <mask id="D">
        <g filter="url(#m)">
            <rect fill-opacity="0.5" height="128" width="128"/>
        </g>
    </mask>
    <clipPath id="E">
        <rect height="152" width="192"/>
    </clipPath>
    <mask id="F">
        <g filter="url(#m)">
            <rect fill-opacity="0.5" height="128" width="128"/>
        </g>
    </mask>
    <clipPath id="G">
        <rect height="152" width="192"/>
    </clipPath>
    <mask id="H">
        <g filter="url(#m)">
            <rect fill-opacity="0.5" height="128" width="128"/>
        </g>
    </mask>
    <clipPath id="I">
        <rect height="152" width="192"/>
    </clipPath>
    <path d="m 64 20 c 27.613281 0 50 22.386719 50 50 s -22.386719 50 -50 50 s -50 -22.386719 -50 -50 s 22.386719 -50 50 -50 z m 0 0" fill="url(#a)"/>
    <g clip-path="url(#b)">
        <g clip-path="url(#c)">
            <path d="m 72.507812 80.238281 c -9.15625 14.238281 -32.988281 27.035157 -32.988281 27.035157 s 1.730469 -26.960938 10.902344 -41.230469 c 3.921875 -6.097657 12.042969 -7.863281 18.140625 -3.941407 c 6.097656 3.917969 7.863281 12.039063 3.945312 18.136719 z m 0 0" fill="url(#d)"/>
        </g>
    </g>
    <g clip-path="url(#e)">
        <g clip-path="url(#f)">
            <path d="m 85.605469 82.019531 c -7.496094 11.664063 -23.035157 15.042969 -34.699219 7.542969 s -15.039062 -23.035156 -7.539062 -34.699219 c 7.496093 -11.664062 23.035156 -15.042969 34.699218 -7.542969 c 11.664063 7.5 15.039063 23.035157 7.539063 34.699219 z m 0 0" fill="url(#g)"/>
        </g>
    </g>
    <g clip-path="url(#h)">
        <g clip-path="url(#i)">
            <path d="m 77.058594 76.523438 c -4.464844 6.945312 -13.710938 8.953124 -20.65625 4.492187 c -6.941406 -4.464844 -8.953125 -13.714844 -4.488282 -20.65625 c 4.464844 -6.945313 13.710938 -8.953125 20.65625 -4.488281 c 6.941407 4.460937 8.953126 13.710937 4.488282 20.652344 z m 0 0" fill="url(#j)"/>
        </g>
    </g>
    <g clip-path="url(#k)">
        <g clip-path="url(#l)">
            <path d="m 68.921875 71.292969 c -1.574219 2.449219 -4.835937 3.15625 -7.285156 1.582031 s -3.160157 -4.835938 -1.585938 -7.285156 c 1.574219 -2.449219 4.835938 -3.15625 7.285157 -1.582032 c 2.449218 1.574219 3.160156 4.835938 1.585937 7.285157 z m 0 0" fill="#ffffff"/>
        </g>
    </g>
    <path d="m 97.457031 17.144531 c 7.882813 5.070313 10.167969 15.570313 5.097657 23.453125 l -13.988282 21.757813 c -5.070312 7.886719 -15.570312 10.167969 -23.453125 5.097656 c -7.886719 -5.066406 -10.167969 -15.566406 -5.097656 -23.453125 l 13.988281 -21.757812 c 5.070313 -7.882813 15.570313 -10.167969 23.453125 -5.097657 z m 0 0" fill="#f6f5f4"/>
    <path d="m 88.875 47.179688 c -2.695312 4.191406 -8.277344 5.402343 -12.46875 2.707031 c -4.191406 -2.691407 -5.40625 -8.273438 -2.710938 -12.464844 c 2.695313 -4.191406 8.277344 -5.40625 12.46875 -2.710937 c 4.191407 2.695312 5.402344 8.277343 2.710938 12.46875 z m 0 0" fill="#deddda"/>
    <path d="m 86.730469 45.800781 c -1.933594 3.007813 -5.9375 3.875 -8.945313 1.945313 c -3.007812 -1.933594 -3.878906 -5.941406 -1.945312 -8.949219 c 1.933594 -3.003906 5.9375 -3.875 8.945312 -1.941406 c 3.007813 1.933593 3.878906 5.9375 1.945313 8.945312 z m 0 0" fill="#5e5c64"/>
    <path d="m 97.457031 17.144531 c -1.152343 -0.742187 -2.359375 -1.320312 -3.597656 -1.753906 c 5.324219 5.535156 6.351563 14.152344 2.007813 20.90625 l -13.988282 21.761719 c -4.34375 6.753906 -12.609375 9.394531 -19.855468 6.851562 c 0.90625 0.945313 1.9375 1.804688 3.089843 2.542969 c 7.90625 5.085937 18.367188 2.8125 23.453125 -5.097656 l 13.988282 -21.757813 c 5.085937 -7.910156 2.8125 -18.367187 -5.097657 -23.453125 z m 0 0" fill="#deddda" fill-opacity="0.168627"/>
    <path d="m 102.292969 9.617188 c -7.054688 -4.535157 -18.386719 -0.085938 -26.679688 10.46875 l 28.230469 18.148437 c 6.160156 -11.925781 5.503906 -24.082031 -1.550781 -28.617187 z m 0 0" fill="#ed333b"/>
    <path d="m 60.628906 47.742188 l -1.203125 5.964843 c -0.898437 4.453125 -5.015625 7.507813 -9.535156 7.070313 l -8.25 -0.789063 c -1.285156 -0.125 -2.414063 -0.910156 -2.980469 -2.074219 c -0.5625 -1.160156 -0.480468 -2.535156 0.21875 -3.621093 l 1.671875 -2.601563 c 1.378907 -2.144531 3.597657 -3.601562 6.109375 -4.015625 l 12 -1.972656 c 0.558594 -0.09375 1.125 0.09375 1.519532 0.503906 c 0.390624 0.40625 0.558593 0.980469 0.449218 1.535157 z m 0 0" fill="#c0bfbc"/>
    <path d="m 72.351562 56.191406 c 0.589844 0.378906 0.757813 1.160156 0.382813 1.746094 l -11.507813 17.898438 c -0.378906 0.585937 -1.160156 0.757812 -1.746093 0.378906 c -0.589844 -0.375 -0.757813 -1.160156 -0.378907 -1.746094 l 11.503907 -17.898438 c 0.378906 -0.585937 1.160156 -0.757812 1.746093 -0.378906 z m 0 0" fill="#deddda"/>
    <path d="m 104.441406 11.445312 c -0.765625 6.800782 -3.433594 14.628907 -7.597656 22.289063 l 7 4.5 c 5.390625 -10.433594 5.632812 -21.238281 0.597656 -26.789063 z m 0 0" fill="#e01b24"/>
    <path d="m 85.019531 63.421875 l -4.929687 3.570313 c -3.679688 2.664062 -4.746094 7.679687 -2.476563 11.609374 l 4.144531 7.175782 c 0.648438 1.121094 1.828126 1.824218 3.121094 1.851562 c 1.292969 0.03125 2.507813 -0.613281 3.207032 -1.699218 l 1.671874 -2.601563 c 1.378907 -2.144531 1.785157 -4.769531 1.117188 -7.226563 l -3.183594 -11.734374 c -0.148437 -0.546876 -0.554687 -0.984376 -1.089844 -1.171876 c -0.53125 -0.191406 -1.125 -0.105468 -1.582031 0.226563 z m 0 0" fill="#ffffff"/>
    <g clip-path="url(#o)" mask="url(#n)" transform="matrix(1 0 0 1 -8 -16)">
        <path d="m 35.757812 79.621094 c -0.582031 0 -1.054687 0.472656 -1.054687 1.054687 c 0 0.820313 -0.664063 1.484375 -1.484375 1.488281 c -0.582031 0 -1.054688 0.46875 -1.054688 1.054688 c 0 0.582031 0.472657 1.054688 1.054688 1.054688 c 0.820312 0 1.484375 0.664062 1.484375 1.484374 c 0 0.582032 0.472656 1.054688 1.054687 1.054688 c 0.523438 0 0.832032 -0.382812 0.945313 -1.40625 c 0.011719 -1.3125 1.597656 -1.132812 1.597656 -1.132812 c 0.582031 0 1.054688 -0.472657 1.054688 -1.054688 c 0 -0.585938 -0.472657 -1.054688 -1.054688 -1.054688 c -0.820312 -0.003906 -1.488281 -0.667968 -1.488281 -1.488281 c 0 -0.582031 -0.472656 -1.054687 -1.054688 -1.054687 z m 0 0" fill="#ffffff"/>
    </g>
    <path d="m 29.117188 67.21875 c 0 0.75 -0.609376 1.355469 -1.359376 1.355469 s -1.355468 -0.605469 -1.355468 -1.355469 s 0.605468 -1.359375 1.355468 -1.359375 s 1.359376 0.609375 1.359376 1.359375 z m 0 0" fill="#ffffff"/>
    <g clip-path="url(#q)" mask="url(#p)" transform="matrix(1 0 0 1 -8 -16)">
        <path d="m 90.109375 117.140625 c 0 0.351563 -0.289063 0.640625 -0.640625 0.640625 c -0.355469 0 -0.640625 -0.289062 -0.640625 -0.640625 c 0 -0.355469 0.285156 -0.640625 0.640625 -0.640625 c 0.351562 0 0.640625 0.285156 0.640625 0.640625 z m 0 0" fill="#ffffff"/>
    </g>
    <g clip-path="url(#s)" mask="url(#r)" transform="matrix(1 0 0 1 -8 -16)">
        <path d="m 39.25 103.707031 c 0 0.75 -0.609375 1.355469 -1.359375 1.355469 s -1.355469 -0.605469 -1.355469 -1.355469 s 0.605469 -1.359375 1.355469 -1.359375 s 1.359375 0.609375 1.359375 1.359375 z m 0 0" fill="#ffffff"/>
    </g>
    <g clip-path="url(#u)" mask="url(#t)" transform="matrix(1 0 0 1 -8 -16)">
        <path d="m 74 112 c 0 0.75 -0.609375 1.359375 -1.359375 1.359375 s -1.355469 -0.609375 -1.355469 -1.359375 s 0.605469 -1.359375 1.355469 -1.359375 s 1.359375 0.609375 1.359375 1.359375 z m 0 0" fill="#ffffff"/>
    </g>
    <g clip-path="url(#w)" mask="url(#v)" transform="matrix(1 0 0 1 -8 -16)">
        <path d="m 80.882812 101.050781 c 0 0.257813 -0.210937 0.46875 -0.46875 0.46875 c -0.257812 0 -0.464843 -0.210937 -0.464843 -0.46875 c 0 -0.257812 0.207031 -0.464843 0.464843 -0.464843 c 0.257813 0 0.46875 0.207031 0.46875 0.464843 z m 0 0" fill="#ffffff"/>
    </g>
    <g clip-path="url(#y)" mask="url(#x)" transform="matrix(1 0 0 1 -8 -16)">
        <path d="m 66.464844 121.519531 c 0 0.75 -0.605469 1.359375 -1.355469 1.359375 s -1.359375 -0.609375 -1.359375 -1.359375 s 0.609375 -1.355469 1.359375 -1.355469 s 1.355469 0.605469 1.355469 1.355469 z m 0 0" fill="#ffffff"/>
    </g>
    <g clip-path="url(#A)" mask="url(#z)" transform="matrix(1 0 0 1 -8 -16)">
        <path d="m 107.757812 91.621094 c -0.582031 0 -1.054687 0.472656 -1.054687 1.054687 c 0 0.820313 -0.664063 1.484375 -1.484375 1.488281 c -0.582031 0 -1.054688 0.46875 -1.054688 1.054688 c 0 0.582031 0.472657 1.054688 1.054688 1.054688 c 0.820312 0 1.484375 0.664062 1.484375 1.484374 c 0 0.582032 0.472656 1.054688 1.054687 1.054688 c 0.523438 0 0.832032 -0.382812 0.945313 -1.40625 c 0.011719 -1.3125 1.597656 -1.132812 1.597656 -1.132812 c 0.582031 0 1.054688 -0.472657 1.054688 -1.054688 c 0 -0.585938 -0.472657 -1.054688 -1.054688 -1.054688 c -0.820312 -0.003906 -1.488281 -0.667968 -1.488281 -1.488281 c 0 -0.582031 -0.472656 -1.054687 -1.054688 -1.054687 z m 0 0" fill="#ffffff"/>
    </g>
    <path d="m 101.117188 79.21875 c 0 0.75 -0.609376 1.355469 -1.359376 1.355469 s -1.355468 -0.605469 -1.355468 -1.355469 s 0.605468 -1.359375 1.355468 -1.359375 s 1.359376 0.609375 1.359376 1.359375 z m 0 0" fill="#ffffff"/>
    <g clip-path="url(#C)" mask="url(#B)" transform="matrix(1 0 0 1 -8 -16)">
        <path d="m 54 52 c 0 0.75 -0.609375 1.359375 -1.359375 1.359375 s -1.355469 -0.609375 -1.355469 -1.359375 s 0.605469 -1.359375 1.355469 -1.359375 s 1.359375 0.609375 1.359375 1.359375 z m 0 0" fill="#ffffff"/>
    </g>
    <g clip-path="url(#E)" mask="url(#D)" transform="matrix(1 0 0 1 -8 -16)">
        <path d="m 110.109375 77.140625 c 0 0.351563 -0.289063 0.640625 -0.640625 0.640625 c -0.355469 0 -0.640625 -0.289062 -0.640625 -0.640625 c 0 -0.355469 0.285156 -0.640625 0.640625 -0.640625 c 0.351562 0 0.640625 0.285156 0.640625 0.640625 z m 0 0" fill="#ffffff"/>
    </g>
    <g clip-path="url(#G)" mask="url(#F)" transform="matrix(1 0 0 1 -8 -16)">
        <path d="m 36.109375 63.140625 c 0 0.351563 -0.289063 0.640625 -0.640625 0.640625 c -0.355469 0 -0.640625 -0.289062 -0.640625 -0.640625 c 0 -0.355469 0.285156 -0.640625 0.640625 -0.640625 c 0.351562 0 0.640625 0.285156 0.640625 0.640625 z m 0 0" fill="#ffffff"/>
    </g>
    <g clip-path="url(#I)" mask="url(#H)" transform="matrix(1 0 0 1 -8 -16)">
        <path d="m 70 48 c 0 0.75 -0.609375 1.359375 -1.359375 1.359375 s -1.355469 -0.609375 -1.355469 -1.359375 s 0.605469 -1.359375 1.355469 -1.359375 s 1.359375 0.609375 1.359375 1.359375 z m 0 0" fill="#ffffff"/>
    </g>
</svg>
