<svg width="240" height="400" viewBox="0 0 63.5 105.833" xmlns="http://www.w3.org/2000/svg">
    <defs>
        <clipPath clipPathUnits="userSpaceOnUse" id="a">
            <path style="opacity:.6;fill:#a51d2d;stroke:none;stroke-width:4;stroke-linecap:round;stroke-linejoin:round;stroke-dashoffset:2" d="M1080 120h240v400h-240z"/>
        </clipPath>
        <clipPath clipPathUnits="userSpaceOnUse" id="b">
            <path transform="scale(-1 1)" style="fill:#fff;fill-opacity:1;stroke:none;stroke-width:2.00002;stroke-linecap:round;stroke-linejoin:round;stroke-miterlimit:4;stroke-dasharray:none;stroke-dashoffset:0;stroke-opacity:1" d="M-1620-170h200v400h-200z"/>
        </clipPath>
        <clipPath clipPathUnits="userSpaceOnUse" id="c">
            <path transform="scale(-1 1)" style="fill:#fff;fill-opacity:1;stroke:none;stroke-width:2.00002;stroke-linecap:round;stroke-linejoin:round;stroke-miterlimit:4;stroke-dasharray:none;stroke-dashoffset:0;stroke-opacity:1" d="M-1620 155h200v400h-200z"/>
        </clipPath>
    </defs>
    <g clip-path="url(#a)" style="display:inline" transform="matrix(.26458 0 0 .26458 -285.75 -31.75)">
        <rect style="opacity:.92;fill:#deddda;fill-opacity:1;stroke:none;stroke-width:1;stroke-linecap:round;stroke-linejoin:round;stroke-dasharray:none;stroke-dashoffset:2" width="210" height="440" x="1095" y="135" rx="15" ry="15"/>
        <rect style="display:inline;opacity:.92;fill:#fff;fill-opacity:1;stroke:none;stroke-width:1;stroke-linecap:round;stroke-linejoin:round;stroke-dasharray:none;stroke-dashoffset:2" width="30" height="5" x="1185" y="142.5" rx="2.5" ry="2.5"/>
        <circle style="display:inline;opacity:.92;fill:#fff;fill-opacity:1;stroke:none;stroke-width:1;stroke-linecap:round;stroke-linejoin:round;stroke-dasharray:none;stroke-dashoffset:2" cx="1241.5" cy="145" r="3.5"/>
        <path transform="scale(-1 1)" style="fill:#fff;fill-opacity:1;stroke:none;stroke-width:2.00002;stroke-linecap:round;stroke-linejoin:round;stroke-miterlimit:4;stroke-dasharray:none;stroke-dashoffset:0;stroke-opacity:1" d="M-1300 155h200v400h-200z"/>
        <path transform="scale(-1 1)" style="fill:#fff;fill-opacity:1;stroke:none;stroke-width:2.00002;stroke-linecap:round;stroke-linejoin:round;stroke-miterlimit:4;stroke-dasharray:none;stroke-dashoffset:0;stroke-opacity:1" d="M-1300 155h200v400h-200z"/>
        <path transform="scale(-1 1)" style="fill:#000;fill-opacity:1;stroke:none;stroke-width:2.00002;stroke-linecap:round;stroke-linejoin:round;stroke-miterlimit:4;stroke-dasharray:none;stroke-dashoffset:0;stroke-opacity:1" d="M-1300 155h200v400h-200z"/>
        <rect style="display:inline;opacity:1;fill:#f6f5f4;fill-opacity:1;stroke:none;stroke-width:2;stroke-linejoin:round;stroke-miterlimit:4;stroke-dasharray:none;stroke-dashoffset:0;stroke-opacity:.35" width="120" height="210" x="1140" y="170" rx="5" ry="5"/>
        <path style="display:inline;opacity:.2;fill:none;stroke:#f6f5f4;stroke-width:1.5;stroke-linecap:round;stroke-linejoin:miter;stroke-dasharray:none;stroke-opacity:1" d="M1110 520h180"/>
        <g transform="translate(-320 325)" style="display:inline" clip-path="url(#b)">
            <rect style="opacity:.2;fill:#f6f5f4;fill-opacity:1;stroke:none;stroke-width:.999999;stroke-linecap:round;stroke-linejoin:round;stroke-dashoffset:2" width="36" height="36" x="1430" y="208" ry="18" rx="18"/>
            <rect style="opacity:.2;fill:#f6f5f4;fill-opacity:1;stroke:none;stroke-width:.999999;stroke-linecap:round;stroke-linejoin:round;stroke-dashoffset:2" width="36" height="36" x="1478" y="208" ry="18" rx="18"/>
            <rect style="opacity:.2;fill:#f6f5f4;fill-opacity:1;stroke:none;stroke-width:.999999;stroke-linecap:round;stroke-linejoin:round;stroke-dashoffset:2" width="36" height="36" x="1526" y="208" ry="18" rx="18"/>
            <rect style="opacity:.2;fill:#f6f5f4;fill-opacity:1;stroke:none;stroke-width:.999999;stroke-linecap:round;stroke-linejoin:round;stroke-dashoffset:2" width="36" height="36" x="1574" y="208" ry="18" rx="18"/>
        </g>
        <rect style="display:inline;opacity:1;fill:#98c1f1;fill-opacity:1;stroke:#98c1f1;stroke-width:2;stroke-linejoin:round;stroke-miterlimit:4;stroke-dasharray:none;stroke-dashoffset:0;stroke-opacity:.35" width="120" height="210" x="1140" y="170" rx="5" ry="5"/>
        <g clip-path="url(#c)" transform="translate(-320)">
            <path style="display:inline;opacity:1;fill:#5e5c64;fill-opacity:1;stroke:none;stroke-width:2.00003;stroke-linejoin:round;stroke-miterlimit:4;stroke-dasharray:none;stroke-dashoffset:0;stroke-opacity:1" d="M1375 200c-2.77 0-5 2.23-5 5v200c0 2.77 2.23 5 5 5h60c2.77 0 5-2.23 5-5V205c0-2.77-2.23-5-5-5zm230 0c-2.77 0-5 2.23-5 5v200c0 2.77 2.23 5 5 5h40c2.77 0 5-2.23 5-5V205c0-2.77-2.23-5-5-5z"/>
        </g>
        <path transform="scale(-1 1)" style="display:inline;fill:#000;fill-opacity:1;stroke:none;stroke-width:.424268;stroke-linecap:round;stroke-linejoin:round;stroke-miterlimit:4;stroke-dasharray:none;stroke-dashoffset:0;stroke-opacity:1" d="M-1300 155h200v18h-200z"/>
        <text y="166.338" x="1201.39" style="font-style:normal;font-variant:normal;font-weight:400;font-stretch:normal;font-size:8px;line-height:0%;font-family:Cantarell;-inkscape-font-specification:Cantarell;text-align:center;letter-spacing:0;word-spacing:0;text-anchor:middle;display:inline;fill:#fff;fill-opacity:1;stroke:none;stroke-width:1.00001" xml:space="preserve" transform="scale(.99888 1.00112)"><tspan y="166.338" x="1201.39" style="font-style:normal;font-variant:normal;font-weight:700;font-stretch:normal;font-size:8px;line-height:1.25;font-family:Cantarell;-inkscape-font-specification:'Cantarell Bold';fill:#fff;fill-opacity:1;stroke-width:1.00001">12:37</tspan></text>
        <g transform="translate(0 40)">
            <circle style="fill:#1c71d8;fill-opacity:1;stroke:#1c71d8;stroke-width:12;stroke-linecap:round;stroke-linejoin:round;stroke-miterlimit:4;stroke-dasharray:none;stroke-dashoffset:0;stroke-opacity:.5" cx="1199" cy="-298.121" transform="scale(1 -1)" r="12"/>
            <path style="fill:none;stroke:#1c70d8;stroke-width:6;stroke-linecap:round;stroke-linejoin:miter;stroke-miterlimit:4;stroke-dasharray:none;stroke-opacity:1" d="M1199 298.121v-70"/>
            <path style="fill:none;stroke:#1c70d8;stroke-width:6;stroke-linecap:round;stroke-linejoin:miter;stroke-dasharray:none;stroke-opacity:1" d="m1189 238.121 10-10 10 10"/>
        </g>
        <rect style="opacity:.2;fill:#f6f5f4;fill-opacity:1;stroke:none;stroke-linecap:round;stroke-linejoin:round;stroke-dashoffset:2" width="180" height="25" x="1110" y="428" ry="12.5" rx="12.5"/>
        <path d="M1123.76 434.316a4.887 4.887 0 0 0-4.874 4.875 4.885 4.885 0 0 0 4.875 4.874 4.846 4.846 0 0 0 2.87-.942l2.96 2.959c.718.703 1.773-.375 1.054-1.078l-2.947-2.948a4.841 4.841 0 0 0 .938-2.865 4.887 4.887 0 0 0-4.875-4.875zm0 1.5a3.364 3.364 0 0 1 3.376 3.375 3.363 3.363 0 0 1-3.375 3.374 3.363 3.363 0 0 1-3.375-3.374 3.364 3.364 0 0 1 3.375-3.375z" style="opacity:.3;fill:#fff;fill-opacity:1;stroke-width:1"/>
        <g transform="translate(-320 261)" style="display:inline">
            <rect style="opacity:.2;fill:#f6f5f4;fill-opacity:1;stroke:none;stroke-width:.999999;stroke-linecap:round;stroke-linejoin:round;stroke-dashoffset:2" width="36" height="36" x="1430" y="208" ry="18" rx="18"/>
            <rect style="opacity:.2;fill:#f6f5f4;fill-opacity:1;stroke:none;stroke-width:.999999;stroke-linecap:round;stroke-linejoin:round;stroke-dashoffset:2" width="36" height="36" x="1478" y="208" ry="18" rx="18"/>
            <rect style="opacity:.2;fill:#f6f5f4;fill-opacity:1;stroke:none;stroke-width:.999999;stroke-linecap:round;stroke-linejoin:round;stroke-dashoffset:2" width="36" height="36" x="1526" y="208" ry="18" rx="18"/>
            <rect style="opacity:.2;fill:#f6f5f4;fill-opacity:1;stroke:none;stroke-width:.999999;stroke-linecap:round;stroke-linejoin:round;stroke-dashoffset:2" width="36" height="36" x="1574" y="208" ry="18" rx="18"/>
        </g>
    </g>
</svg>
