<svg width="240" height="400" viewBox="0 0 63.5 105.833" xmlns:xlink="http://www.w3.org/1999/xlink" xmlns="http://www.w3.org/2000/svg">
    <defs>
        <clipPath clipPathUnits="userSpaceOnUse" id="b">
            <path style="opacity:.6;fill:#a51d2d;stroke:none;stroke-width:4;stroke-linecap:round;stroke-linejoin:round;stroke-dashoffset:2" d="M760 120h240v400H760z"/>
        </clipPath>
        <clipPath clipPathUnits="userSpaceOnUse" id="d">
            <path transform="scale(-1 1)" style="fill:#fff;fill-opacity:1;stroke:none;stroke-width:2.00002;stroke-linecap:round;stroke-linejoin:round;stroke-miterlimit:4;stroke-dasharray:none;stroke-dashoffset:0;stroke-opacity:1" d="M-1620-170h200v400h-200z"/>
        </clipPath>
        <radialGradient xlink:href="#a" id="c" cx="-880" cy="1093" fx="-880" fy="1093" r="100" gradientTransform="matrix(1.5 .02 -.00733 .54995 448.013 -253.496)" gradientUnits="userSpaceOnUse"/>
        <linearGradient id="a">
            <stop style="stop-color:#1c71d8;stop-opacity:1" offset="0"/>
            <stop style="stop-color:#1c71d8;stop-opacity:0" offset="1"/>
        </linearGradient>
    </defs>
    <g clip-path="url(#b)" style="display:inline" transform="matrix(.26458 0 0 .26458 -201.083 -31.75)">
        <rect style="opacity:.92;fill:#deddda;fill-opacity:.921569;stroke:none;stroke-width:1;stroke-linecap:round;stroke-linejoin:round;stroke-dasharray:none;stroke-dashoffset:2" width="210" height="440" x="775" y="68" rx="15" ry="15"/>
        <path transform="scale(-1 1)" style="fill:#fff;fill-opacity:1;stroke:none;stroke-width:2.00002;stroke-linecap:round;stroke-linejoin:round;stroke-miterlimit:4;stroke-dasharray:none;stroke-dashoffset:0;stroke-opacity:1" d="M-980 88h200v400h-200z"/>
        <path style="fill:#000;fill-opacity:1;stroke:none;stroke-width:2.00002;stroke-linecap:round;stroke-linejoin:round;stroke-miterlimit:4;stroke-dasharray:none;stroke-dashoffset:0;stroke-opacity:1" d="M780 330h200v158H780z"/>
        <path transform="scale(-1 1)" style="display:inline;opacity:.5;fill:url(#c);fill-opacity:1;stroke:none;stroke-width:4.00005;stroke-linecap:round;stroke-linejoin:round;stroke-miterlimit:4;stroke-dasharray:none;stroke-dashoffset:0;stroke-opacity:1" d="M-980 220h200v110h-200z"/>
        <g transform="translate(-320 -140)">
            <circle style="opacity:1;fill:#1c71d8;fill-opacity:1;stroke:#1c71d8;stroke-width:12;stroke-linecap:round;stroke-linejoin:round;stroke-miterlimit:4;stroke-dasharray:none;stroke-dashoffset:0;stroke-opacity:.5" cx="1150" cy="-480" transform="scale(1 -1)" r="12"/>
            <path style="fill:none;stroke:#1c70d8;stroke-width:6;stroke-linecap:round;stroke-linejoin:miter;stroke-miterlimit:4;stroke-dasharray:none;stroke-opacity:1" d="M1150 480v-70"/>
            <path style="fill:none;stroke:#1c70d8;stroke-width:6;stroke-linecap:round;stroke-linejoin:miter;stroke-dasharray:none;stroke-opacity:1" d="m1140 420 10-10 10 10"/>
        </g>
        <path style="display:inline;fill:none;stroke:#f6f5f4;stroke-width:1.5;stroke-linecap:round;stroke-linejoin:miter;stroke-dasharray:none;stroke-opacity:.2" d="M790 453h180"/>
        <g transform="translate(-640 258)" style="display:inline" clip-path="url(#d)">
            <rect style="opacity:1;fill:#f6f5f4;fill-opacity:.2;stroke:none;stroke-width:.999999;stroke-linecap:round;stroke-linejoin:round;stroke-dashoffset:2" width="36" height="36" x="1430" y="208" ry="18" rx="18"/>
            <rect style="opacity:1;fill:#f6f5f4;fill-opacity:.2;stroke:none;stroke-width:.999999;stroke-linecap:round;stroke-linejoin:round;stroke-dashoffset:2" width="36" height="36" x="1478" y="208" ry="18" rx="18"/>
            <rect style="opacity:1;fill:#f6f5f4;fill-opacity:.2;stroke:none;stroke-width:.999999;stroke-linecap:round;stroke-linejoin:round;stroke-dashoffset:2" width="36" height="36" x="1526" y="208" ry="18" rx="18"/>
            <rect style="opacity:1;fill:#f6f5f4;fill-opacity:.2;stroke:none;stroke-width:.999999;stroke-linecap:round;stroke-linejoin:round;stroke-dashoffset:2" width="36" height="36" x="1574" y="208" ry="18" rx="18"/>
        </g>
        <rect style="display:inline;fill:#f6f5f4;fill-opacity:.2;stroke:none;stroke-linecap:round;stroke-linejoin:round;stroke-dashoffset:2" width="180" height="25" x="790" y="361" ry="12.5" rx="12.5"/>
        <path d="M803.76 367.316a4.887 4.887 0 0 0-4.875 4.875 4.885 4.885 0 0 0 4.875 4.874 4.846 4.846 0 0 0 2.872-.942l2.959 2.959c.718.703 1.773-.375 1.054-1.078l-2.947-2.948a4.841 4.841 0 0 0 .937-2.865 4.887 4.887 0 0 0-4.875-4.875zm0 1.5a3.364 3.364 0 0 1 3.375 3.375 3.363 3.363 0 0 1-3.375 3.374 3.363 3.363 0 0 1-3.375-3.374 3.364 3.364 0 0 1 3.375-3.375z" style="display:inline;opacity:.3;fill:#fff;fill-opacity:1;stroke-width:1"/>
        <g transform="translate(-640 194)" style="display:inline">
            <rect style="opacity:1;fill:#f6f5f4;fill-opacity:.2;stroke:none;stroke-width:.999999;stroke-linecap:round;stroke-linejoin:round;stroke-dashoffset:2" width="36" height="36" x="1430" y="208" ry="18" rx="18"/>
            <rect style="opacity:1;fill:#f6f5f4;fill-opacity:.2;stroke:none;stroke-width:.999999;stroke-linecap:round;stroke-linejoin:round;stroke-dashoffset:2" width="36" height="36" x="1478" y="208" ry="18" rx="18"/>
            <rect style="opacity:1;fill:#f6f5f4;fill-opacity:.2;stroke:none;stroke-width:.999999;stroke-linecap:round;stroke-linejoin:round;stroke-dashoffset:2" width="36" height="36" x="1526" y="208" ry="18" rx="18"/>
            <rect style="opacity:1;fill:#f6f5f4;fill-opacity:.2;stroke:none;stroke-width:.999999;stroke-linecap:round;stroke-linejoin:round;stroke-dashoffset:2" width="36" height="36" x="1574" y="208" ry="18" rx="18"/>
        </g>
        <path d="M874.5 339h11" style="display:inline;fill:none;fill-opacity:1;fill-rule:evenodd;stroke:#fff;stroke-width:2;stroke-linecap:round;stroke-linejoin:miter;stroke-dasharray:none;stroke-opacity:1"/>
    </g>
</svg>
