<svg width="240" height="400" viewBox="0 0 63.5 105.833" xmlns="http://www.w3.org/2000/svg">
    <defs>
        <clipPath clipPathUnits="userSpaceOnUse" id="b">
            <circle style="fill:#f4f4f3;fill-opacity:1;stroke:none;stroke-width:2;stroke-linecap:round;stroke-linejoin:round;stroke-dasharray:none;stroke-dashoffset:2;stroke-opacity:1" cx="540.667" cy="448.2" r="50"/>
        </clipPath>
        <filter style="color-interpolation-filters:sRGB" id="a" x="-.048" y="-.048" width="1.096" height="1.096">
            <feGaussianBlur stdDeviation=".794"/>
        </filter>
    </defs>
    <g style="display:inline">
        <path style="fill:#deddda;fill-opacity:1;stroke:none;stroke-width:3.99999;stroke-linecap:round;stroke-linejoin:round;stroke-dasharray:none;stroke-dashoffset:2;stroke-opacity:1" d="M530 291.533c-5.54 0-10 4.46-10 10v380h40v-380c0-5.54-4.46-10-10-10z" transform="matrix(.26458 0 0 .26458 -111.39 -74.489)"/>
        <g transform="matrix(1 0 0 1 -21.431 -190.5)">
            <rect style="fill:#fff;fill-opacity:1;stroke:#fff;stroke-width:.216797;stroke-linecap:round;stroke-linejoin:round;stroke-dasharray:none;stroke-dashoffset:2;stroke-opacity:1" width="4.017" height="8.25" x="50.908" y="217.067" rx="2.008" ry="2.008"/>
            <rect style="fill:#deddda;fill-opacity:1;stroke:#fff;stroke-width:.264583;stroke-linecap:round;stroke-linejoin:round;stroke-dasharray:none;stroke-dashoffset:2;stroke-opacity:1" width="3.969" height="3.969" x="50.932" y="217.091" rx="1.984" ry="1.984"/>
        </g>
        <g transform="matrix(1 0 0 -1 -21.431 264.054)">
            <rect style="fill:#3584e4;fill-opacity:1;stroke:#3584e4;stroke-width:.216797;stroke-linecap:round;stroke-linejoin:round;stroke-dasharray:none;stroke-dashoffset:2;stroke-opacity:1" width="4.017" height="8.25" x="50.908" y="217.067" rx="2.008" ry="2.008"/>
            <rect style="fill:#fff;fill-opacity:1;stroke:#3584e4;stroke-width:.264583;stroke-linecap:round;stroke-linejoin:round;stroke-dasharray:none;stroke-dashoffset:2;stroke-opacity:1" width="3.969" height="3.969" x="50.932" y="217.091" rx="1.984" ry="1.984"/>
        </g>
        <g transform="matrix(1 0 0 1 -21.431 -166.158)">
            <rect style="fill:#fff;fill-opacity:1;stroke:#fff;stroke-width:.216797;stroke-linecap:round;stroke-linejoin:round;stroke-dasharray:none;stroke-dashoffset:2;stroke-opacity:1" width="4.017" height="8.25" x="50.908" y="217.067" rx="2.008" ry="2.008"/>
            <rect style="fill:#deddda;fill-opacity:1;stroke:#fff;stroke-width:.264583;stroke-linecap:round;stroke-linejoin:round;stroke-dasharray:none;stroke-dashoffset:2;stroke-opacity:1" width="3.969" height="3.969" x="50.932" y="217.091" rx="1.984" ry="1.984"/>
        </g>
        <g transform="matrix(.26458 0 0 .26458 -169.598 -74.489)">
            <circle style="opacity:.2;mix-blend-mode:normal;fill:#000;fill-opacity:1;stroke:none;stroke-width:.793751;stroke-linecap:round;stroke-linejoin:round;stroke-dasharray:none;stroke-dashoffset:2;stroke-opacity:1;filter:url(#a)" cx="146.844" cy="250.56" r="19.844" transform="matrix(3.77953 0 0 3.77953 206 -478.467)"/>
            <circle style="fill:#f4f4f3;fill-opacity:1;stroke:none;stroke-width:3;stroke-linecap:round;stroke-linejoin:round;stroke-dasharray:none;stroke-dashoffset:2;stroke-opacity:1" cx="761" cy="466.533" r="75"/>
            <circle style="fill:none;fill-opacity:1;stroke:none;stroke-width:3;stroke-linecap:round;stroke-linejoin:round;stroke-dasharray:none;stroke-dashoffset:2;stroke-opacity:1" cx="761" cy="466.533" r="75"/>
            <g transform="matrix(1.5 0 0 1.5 -50 -205.766)" clip-path="url(#b)">
                <path style="fill:#deddda;fill-opacity:1;stroke:none;stroke-width:3.99999;stroke-linecap:round;stroke-linejoin:round;stroke-dasharray:none;stroke-dashoffset:2;stroke-opacity:1" d="M530 291.533c-5.54 0-10 4.46-10 10v380h40v-380c0-5.54-4.46-10-10-10z"/>
                <g transform="matrix(3.77953 0 0 3.77953 340 -438.467)">
                    <rect style="fill:#fff;fill-opacity:1;stroke:#fff;stroke-width:.216797;stroke-linecap:round;stroke-linejoin:round;stroke-dasharray:none;stroke-dashoffset:2;stroke-opacity:1" width="4.017" height="8.25" x="50.908" y="217.067" rx="2.008" ry="2.008"/>
                    <rect style="fill:#deddda;fill-opacity:1;stroke:#fff;stroke-width:.264583;stroke-linecap:round;stroke-linejoin:round;stroke-dasharray:none;stroke-dashoffset:2;stroke-opacity:1" width="3.969" height="3.969" x="50.932" y="217.091" rx="1.984" ry="1.984"/>
                </g>
                <g transform="matrix(3.77953 0 0 -3.77953 340 1279.533)">
                    <rect style="fill:#3584e4;fill-opacity:1;stroke:#3584e4;stroke-width:.216797;stroke-linecap:round;stroke-linejoin:round;stroke-dasharray:none;stroke-dashoffset:2;stroke-opacity:1" width="4.017" height="8.25" x="50.908" y="217.067" rx="2.008" ry="2.008"/>
                    <rect style="fill:#fff;fill-opacity:1;stroke:#3584e4;stroke-width:.264583;stroke-linecap:round;stroke-linejoin:round;stroke-dasharray:none;stroke-dashoffset:2;stroke-opacity:1" width="3.969" height="3.969" x="50.932" y="217.091" rx="1.984" ry="1.984"/>
                </g>
                <g transform="matrix(3.77953 0 0 3.77953 340 -346.467)">
                    <rect style="fill:#fff;fill-opacity:1;stroke:#fff;stroke-width:.216797;stroke-linecap:round;stroke-linejoin:round;stroke-dasharray:none;stroke-dashoffset:2;stroke-opacity:1" width="4.017" height="8.25" x="50.908" y="217.067" rx="2.008" ry="2.008"/>
                    <rect style="fill:#deddda;fill-opacity:1;stroke:#fff;stroke-width:.264583;stroke-linecap:round;stroke-linejoin:round;stroke-dasharray:none;stroke-dashoffset:2;stroke-opacity:1" width="3.969" height="3.969" x="50.932" y="217.091" rx="1.984" ry="1.984"/>
                </g>
            </g>
        </g>
    </g>
</svg>
