<svg xmlns="http://www.w3.org/2000/svg" xml:space="preserve" width="240" height="400" viewBox="0 0 63.5 105.833"><defs><clipPath id="a" clipPathUnits="userSpaceOnUse"><path d="M58.208 28.575H63.5v17.727h-5.292z" style="opacity:1;fill:#3584e4;fill-opacity:1;stroke:none;stroke-width:2.64583;stroke-linecap:square;stroke-linejoin:round;stroke-dasharray:none;stroke-dashoffset:2;stroke-opacity:.3"/></clipPath></defs><path d="M7.937 2.643a3.96 3.96 0 0 0-3.968 3.969v99.221H59.53V6.612a3.96 3.96 0 0 0-3.97-3.969z" style="opacity:.92;fill:#deddda;fill-opacity:1;stroke:none;stroke-width:.26458;stroke-linecap:round;stroke-linejoin:round;stroke-dasharray:none;stroke-dashoffset:2"/><rect width="7.937" height="1.323" x="27.781" y="4.76" rx=".661" ry=".661" style="opacity:.92;fill:#fff;fill-opacity:1;stroke:none;stroke-width:.26458;stroke-linecap:round;stroke-linejoin:round;stroke-dasharray:none;stroke-dashoffset:2"/><circle cx="42.73" cy="5.421" r=".926" style="opacity:.92;fill:#fff;fill-opacity:1;stroke:none;stroke-width:.26458;stroke-linecap:round;stroke-linejoin:round;stroke-dasharray:none;stroke-dashoffset:2"/><path d="M58.21 105.833H5.294L5.292 7.935h52.916Z" style="fill:#000;fill-opacity:1;stroke:none;stroke-width:.529165;stroke-linecap:round;stroke-linejoin:round;stroke-miterlimit:4;stroke-dasharray:none;stroke-dashoffset:0;stroke-opacity:1"/><rect width="44.979" height="37.042" x="9.262" y="37.571" rx="4.233" ry="4.233" style="opacity:.2;fill:#fff;fill-opacity:1;stroke:none;stroke-width:.529169;stroke-linejoin:round;stroke-miterlimit:4;stroke-dasharray:none;stroke-dashoffset:0;stroke-opacity:1"/><rect width="17.992" height="13.229" x="33.075" y="57.414" rx="3.175" ry="3.175" style="color:#000;display:inline;overflow:visible;visibility:visible;opacity:1;fill:#ed333b;fill-opacity:1;fill-rule:nonzero;stroke:none;stroke-width:.264582;stroke-linecap:butt;stroke-linejoin:miter;stroke-miterlimit:4;stroke-dasharray:none;stroke-dashoffset:0;stroke-opacity:1;marker:none"/><rect width="17.992" height="13.229" x="12.437" y="41.01" rx="3.175" ry="3.175" style="color:#000;display:inline;overflow:visible;visibility:visible;opacity:.1;fill:#fff;fill-opacity:1;fill-rule:nonzero;stroke:none;stroke-width:.264582;stroke-linecap:butt;stroke-linejoin:miter;stroke-miterlimit:4;stroke-dasharray:none;stroke-dashoffset:0;stroke-opacity:1;marker:none"/><g style="font-size:5.60613px;line-height:0%;font-family:Cantarell;-inkscape-font-specification:Cantarell;text-align:center;letter-spacing:.467177px;word-spacing:0;text-anchor:middle;display:inline;opacity:.8;fill:#fff;stroke-width:.264583"><path d="M41.756 65.056v-1.95l-1.687.975-.295-.51 1.688-.975-1.688-.974.295-.51 1.687.974v-1.955h.595v1.949l1.688-.968.3.51-1.687.974 1.688.975-.301.51-1.688-.968v1.943z" aria-label="🞶" style="font-weight:700;font-size:6.54051px;line-height:1.25" transform="scale(1.00032 .99968)"/></g><path fill="#222" d="M20.09 59.819c-.494 0-.9.406-.9.9v2.683c0 .494.406.9.9.9a.3.3 0 0 0 0-.598.295.295 0 0 1-.302-.302v-2.683c0-.173.13-.303.302-.303h1.788c.173 0 .302.13.302.303v.594a.3.3 0 0 0 .599 0v-.594c0-.494-.407-.9-.901-.9zm1.804 2.092a.306.306 0 0 0-.312.288h-.295a.6.6 0 0 0-.602.602V64a.6.6 0 0 0 .602.601h1.787a.6.6 0 0 0 .603-.601v-1.2a.6.6 0 0 0-.602-.6h-.295a.306.306 0 0 0-.312-.29zm.286.897a.598.598 0 1 1 .002 1.195.598.598 0 0 1-.002-1.195" style="opacity:.8;fill:#fff;fill-opacity:1;stroke-width:.264583"/><rect width="4.233" height="1.587" x="22.756" y="50.8" rx=".794" ry=".794" style="display:inline;opacity:.2;fill:#fff;fill-opacity:1;stroke:none;stroke-width:.39687;stroke-linecap:round;stroke-linejoin:round;stroke-dasharray:none;stroke-dashoffset:2;stroke-opacity:1"/><rect width="7.938" height="1.587" x="38.102" y="50.8" rx=".794" ry=".794" style="display:inline;opacity:.2;fill:#fff;fill-opacity:1;stroke:none;stroke-width:.39687;stroke-linecap:round;stroke-linejoin:round;stroke-dasharray:none;stroke-dashoffset:2;stroke-opacity:1"/><rect width="17.992" height="13.229" x="33.075" y="41.01" rx="3.175" ry="3.175" style="color:#000;display:inline;overflow:visible;visibility:visible;opacity:.1;fill:#fff;fill-opacity:1;fill-rule:nonzero;stroke:none;stroke-width:.264582;stroke-linecap:butt;stroke-linejoin:miter;stroke-miterlimit:4;stroke-dasharray:none;stroke-dashoffset:0;stroke-opacity:1;marker:none"/><rect width="17.992" height="13.229" x="12.437" y="57.414" rx="3.175" ry="3.175" style="color:#000;display:inline;overflow:visible;visibility:visible;opacity:.1;fill:#fff;fill-opacity:1;fill-rule:nonzero;stroke:none;stroke-width:.264582;stroke-linecap:butt;stroke-linejoin:miter;stroke-miterlimit:4;stroke-dasharray:none;stroke-dashoffset:0;stroke-opacity:1;marker:none"/><rect width="12.7" height="1.587" x="15.083" y="67.204" rx=".794" ry=".794" style="display:inline;opacity:.2;fill:#fff;fill-opacity:1;stroke:none;stroke-width:.39687;stroke-linecap:round;stroke-linejoin:round;stroke-dasharray:none;stroke-dashoffset:2;stroke-opacity:1"/><rect width="12.7" height="1.587" x="35.721" y="67.204" rx=".794" ry=".794" style="display:inline;opacity:1;fill:#fbd6d8;fill-opacity:1;stroke:none;stroke-width:.39687;stroke-linecap:round;stroke-linejoin:round;stroke-dasharray:none;stroke-dashoffset:2;stroke-opacity:1"/><path d="M42.07 43.736a1.2 1.2 0 0 0-1.196 1.196v.598a.597.597 0 0 0-.598.597v1.495c0 .166.133.299.299.299h2.99c.167 0 .3-.133.3-.299v-1.495a.597.597 0 0 0-.598-.597v-.598a1.2 1.2 0 0 0-1.197-1.196m0 .598a.59.59 0 0 1 .599.598v.598h-1.197v-.598a.59.59 0 0 1 .598-.598" style="opacity:.8;fill:#fff;fill-opacity:1;fill-rule:nonzero;stroke-width:.264583"/><path d="M21.433 43.528a.3.299 0 0 0-.3.3v1.494a.3.299 0 0 0 .3.299.3.299 0 0 0 .3-.3v-1.494a.3.299 0 0 0-.3-.299m-.938.543a.3.299 0 0 0-.11.038 2.095 2.095 0 0 0-.974 2.352 2.095 2.095 0 0 0 2.02 1.55 2.096 2.096 0 0 0 2.022-1.544 2.095 2.095 0 0 0-.966-2.355.3.299 0 0 0-.41.107.3.299 0 0 0 .108.41 1.493 1.493 0 0 1-.754 2.786 1.49 1.49 0 0 1-1.442-1.109 1.49 1.49 0 0 1 .695-1.68.3.299 0 0 0 .11-.408.3.299 0 0 0-.183-.14.3.299 0 0 0-.116-.007" style="opacity:.8;fill:#fff;fill-opacity:1;stroke-width:.264583"/><rect width="6.35" height="1.587" x="15.612" y="50.8" rx=".794" ry=".794" style="display:inline;opacity:.2;fill:#fff;fill-opacity:1;stroke:none;stroke-width:.39687;stroke-linecap:round;stroke-linejoin:round;stroke-dasharray:none;stroke-dashoffset:2;stroke-opacity:1"/><path d="M58.208 31.75c.44 0 .794.354.794.794V43.92c0 .44-.354.793-.794.793a.79.79 0 0 1-.793-.793V32.544c0-.44.354-.794.793-.794z" clip-path="url(#a)" style="opacity:1;fill:#3584e4;stroke:#3584e4;stroke-width:2.64583;stroke-linecap:square;stroke-linejoin:round;stroke-dashoffset:2;stroke-opacity:.2" transform="translate(1.323 -2.646)"/><path d="M58.208 31.75c.44 0 .794.354.794.794V43.92c0 .44-.354.793-.794.793a.79.79 0 0 1-.793-.793V32.544c0-.44.354-.794.793-.794z" clip-path="url(#a)" style="opacity:1;fill:#3584e4;stroke:#3584e4;stroke-width:2.64583;stroke-linecap:square;stroke-linejoin:round;stroke-dashoffset:2;stroke-opacity:.2" transform="translate(1.323 -2.646)"/></svg>