<?xml version="1.0" encoding="UTF-8" standalone="no"?>
<svg
   width="240"
   height="400"
   version="1.1"
   id="svg245"
   sodipodi:docname="welcome.svg"
   inkscape:version="1.2.1 (9c6d41e410, 2022-07-14)"
   xmlns:inkscape="http://www.inkscape.org/namespaces/inkscape"
   xmlns:sodipodi="http://sodipodi.sourceforge.net/DTD/sodipodi-0.dtd"
   xmlns:xlink="http://www.w3.org/1999/xlink"
   xmlns="http://www.w3.org/2000/svg"
   xmlns:svg="http://www.w3.org/2000/svg">
  <sodipodi:namedview
     id="namedview247"
     pagecolor="#ffffff"
     bordercolor="#666666"
     borderopacity="1.0"
     inkscape:showpageshadow="2"
     inkscape:pageopacity="0.0"
     inkscape:pagecheckerboard="0"
     inkscape:deskcolor="#d1d1d1"
     showgrid="false"
     inkscape:zoom="2.8284271"
     inkscape:cx="19.26866"
     inkscape:cy="289.20668"
     inkscape:window-width="1920"
     inkscape:window-height="1011"
     inkscape:window-x="0"
     inkscape:window-y="0"
     inkscape:window-maximized="1"
     inkscape:current-layer="svg245">
    <inkscape:grid
       type="xygrid"
       id="grid2667" />
  </sodipodi:namedview>
  <defs
     id="defs119">
    <linearGradient
       id="m">
      <stop
         style="stop-color:#9141ac;stop-opacity:1"
         offset="0"
         id="stop2" />
      <stop
         style="stop-color:#4e98e7;stop-opacity:.84661794"
         offset=".266"
         id="stop4" />
      <stop
         style="stop-color:#67d5ea;stop-opacity:.65414792"
         offset=".486"
         id="stop6" />
      <stop
         style="stop-color:#99d6f1;stop-opacity:0"
         offset="1"
         id="stop8" />
    </linearGradient>
    <linearGradient
       id="f">
      <stop
         style="stop-color:#ed333b;stop-opacity:1"
         offset="0"
         id="stop11" />
      <stop
         style="stop-color:#f6d32d;stop-opacity:.87138313"
         offset=".45"
         id="stop13" />
      <stop
         style="stop-color:#8ff0a4;stop-opacity:.41141579"
         offset=".78"
         id="stop15" />
      <stop
         style="stop-color:#8ff0a4;stop-opacity:0"
         offset="1"
         id="stop17" />
    </linearGradient>
    <linearGradient
       id="l">
      <stop
         style="stop-color:#f9f06b;stop-opacity:1"
         offset="0"
         id="stop20" />
      <stop
         style="stop-color:#33d17a;stop-opacity:.86729813"
         offset=".459"
         id="stop22" />
      <stop
         style="stop-color:#4dc6e7;stop-opacity:.70543128"
         offset=".675"
         id="stop24" />
      <stop
         style="stop-color:#65d6ea;stop-opacity:.00392157"
         offset="1"
         id="stop26" />
    </linearGradient>
    <linearGradient
       id="e">
      <stop
         style="stop-color:#99c1f1;stop-opacity:1"
         offset="0"
         id="stop29" />
      <stop
         style="stop-color:#1c71d8;stop-opacity:.00394669"
         offset="1"
         id="stop31" />
    </linearGradient>
    <linearGradient
       id="d">
      <stop
         style="stop-color:#fff;stop-opacity:1"
         offset="0"
         id="stop34" />
      <stop
         style="stop-color:#fff;stop-opacity:0"
         offset="1"
         id="stop36" />
    </linearGradient>
    <linearGradient
       xlink:href="#a"
       id="y"
       gradientUnits="userSpaceOnUse"
       gradientTransform="matrix(0.17308,0,0,0.2381,-127.051,232)"
       x1="29.185"
       y1="204"
       x2="445.185"
       y2="204" />
    <linearGradient
       id="a">
      <stop
         offset="0"
         style="stop-color:#241f31;stop-opacity:1"
         id="stop40" />
      <stop
         style="stop-color:#5e5c64;stop-opacity:1"
         offset=".045"
         id="stop42" />
      <stop
         offset=".091"
         style="stop-color:#241f31;stop-opacity:1"
         id="stop44" />
      <stop
         style="stop-color:#241f31;stop-opacity:1"
         offset=".909"
         id="stop46" />
      <stop
         offset=".953"
         style="stop-color:#5e5c64;stop-opacity:1"
         id="stop48" />
      <stop
         offset="1"
         style="stop-color:#241f31;stop-opacity:1"
         id="stop50" />
    </linearGradient>
    <linearGradient
       xlink:href="#b"
       id="z"
       gradientUnits="userSpaceOnUse"
       gradientTransform="matrix(1.125,0,0,1,-92.84,-178.377)"
       x1="-45.92"
       y1="350.377"
       x2="40.074"
       y2="421.082" />
    <linearGradient
       id="b">
      <stop
         style="stop-color:#9a9996;stop-opacity:1"
         offset="0"
         id="stop54" />
      <stop
         offset=".339"
         style="stop-color:#241f31;stop-opacity:1"
         id="stop56" />
      <stop
         style="stop-color:#5e5c64;stop-opacity:1"
         offset=".72"
         id="stop58" />
      <stop
         style="stop-color:#3d3846;stop-opacity:1"
         offset="1"
         id="stop60" />
    </linearGradient>
    <linearGradient
       id="g">
      <stop
         offset="0"
         style="stop-color:#fd86db;stop-opacity:1"
         id="stop63" />
      <stop
         offset="1"
         style="stop-color:#102f9f;stop-opacity:1"
         id="stop65" />
    </linearGradient>
    <linearGradient
       id="h">
      <stop
         style="stop-color:#bde8f7;stop-opacity:1"
         offset="0"
         id="stop68" />
      <stop
         style="stop-color:#aedfde;stop-opacity:.01568628"
         offset="1"
         id="stop70" />
    </linearGradient>
    <linearGradient
       id="i">
      <stop
         offset="0"
         stop-color="#fff"
         id="stop73" />
      <stop
         offset=".519"
         stop-color="#fff"
         id="stop75" />
      <stop
         offset=".734"
         stop-color="#cfcfcf"
         id="stop77" />
      <stop
         offset="1"
         stop-color="#dcdcdc"
         id="stop79" />
    </linearGradient>
    <linearGradient
       id="j">
      <stop
         offset="0"
         stop-color="#ed686f"
         id="stop82" />
      <stop
         offset=".865"
         stop-color="#a51d2d"
         id="stop84" />
      <stop
         offset="1"
         stop-color="#e01b24"
         id="stop86" />
    </linearGradient>
    <linearGradient
       id="k">
      <stop
         offset="0"
         stop-color="#ed686f"
         id="stop89" />
      <stop
         offset=".911"
         stop-color="#a51d2d"
         id="stop91" />
      <stop
         offset="1"
         stop-color="#e01b24"
         id="stop93" />
    </linearGradient>
    <linearGradient
       id="c">
      <stop
         offset="0"
         stop-color="#051224"
         style="stop-color:#98c1f1;stop-opacity:0"
         id="stop96" />
      <stop
         offset="1"
         stop-color="#3584e4"
         id="stop98" />
    </linearGradient>
    <linearGradient
       xlink:href="#c"
       id="r"
       x1="144"
       y1="400"
       x2="144"
       y2="252"
       gradientUnits="userSpaceOnUse"
       gradientTransform="translate(0 12)" />
    <radialGradient
       xlink:href="#d"
       id="n"
       gradientUnits="userSpaceOnUse"
       gradientTransform="matrix(1.59329,0,0,3.8782,-291.688,-479.075)"
       cx="234.336"
       cy="170.045"
       fx="234.336"
       fy="170.045"
       r="57.233" />
    <radialGradient
       xlink:href="#d"
       id="C"
       gradientUnits="userSpaceOnUse"
       gradientTransform="matrix(-1.52227,0.47038,1.14495,3.70534,297.778,-571.887)"
       cx="247.734"
       cy="167.441"
       fx="247.734"
       fy="167.441"
       r="57.233" />
    <radialGradient
       xlink:href="#e"
       id="E"
       gradientUnits="userSpaceOnUse"
       gradientTransform="matrix(3.42893,-0.17477,0.21267,6.28193,-936.352,-788.97)"
       cx="294.088"
       cy="155.782"
       fx="294.088"
       fy="155.782"
       r="14.686" />
    <radialGradient
       xlink:href="#f"
       id="x"
       gradientUnits="userSpaceOnUse"
       gradientTransform="matrix(1.6451,0,0,0.99055,-340.406,12.693)"
       cx="280.333"
       cy="196.053"
       fx="280.333"
       fy="196.053"
       r="149.065" />
    <radialGradient
       xlink:href="#d"
       id="D"
       gradientUnits="userSpaceOnUse"
       gradientTransform="matrix(-1.08313,1.1685,2.84422,2.63645,-147.536,-548.35)"
       cx="247.734"
       cy="167.441"
       fx="247.734"
       fy="167.441"
       r="57.233" />
    <radialGradient
       xlink:href="#g"
       id="A"
       cx="-109.966"
       cy="257.528"
       fx="-109.966"
       fy="257.528"
       r="32"
       gradientTransform="matrix(2.7346,-0.76564,0.74798,2.67152,154.928,-488.676)"
       gradientUnits="userSpaceOnUse" />
    <radialGradient
       xlink:href="#h"
       id="B"
       gradientUnits="userSpaceOnUse"
       gradientTransform="matrix(0.76084,-0.89505,1.23847,0.59313,70.041,-95.421)"
       cx="-256.614"
       cy="195.926"
       fx="-256.614"
       fy="195.926"
       r="48" />
    <radialGradient
       r="33.5"
       fy="48.406"
       fx="79.091"
       cy="48.406"
       cx="79.091"
       gradientTransform="matrix(.00476 1.62228 -1.43419 .00422 141.702 -82.047)"
       gradientUnits="userSpaceOnUse"
       id="t"
       xlink:href="#i" />
    <radialGradient
       r="12"
       fy="54.102"
       fx="71.474"
       cy="54.102"
       cx="71.474"
       gradientTransform="matrix(4.50607 0 0 4.76661 -259.306 -59.706)"
       gradientUnits="userSpaceOnUse"
       id="u"
       xlink:href="#j" />
    <radialGradient
       r="14.583"
       fy="49.777"
       fx="40.152"
       cy="49.777"
       cx="40.152"
       gradientTransform="matrix(.87016 4.27869 -2.56693 .52204 148.394 -163.306)"
       gradientUnits="userSpaceOnUse"
       id="v"
       xlink:href="#k" />
    <radialGradient
       r="14.583"
       fy="49.777"
       fx="40.152"
       cy="49.777"
       cx="40.152"
       gradientTransform="matrix(.87016 4.27869 -2.56693 .52204 148.394 -163.306)"
       gradientUnits="userSpaceOnUse"
       id="w"
       xlink:href="#k" />
    <radialGradient
       xlink:href="#l"
       id="p"
       gradientUnits="userSpaceOnUse"
       gradientTransform="matrix(-0.0842,-1.32513,-0.51016,0.03241,273.86,559.626)"
       cx="243.967"
       cy="174.783"
       fx="243.967"
       fy="174.783"
       r="149.065" />
    <radialGradient
       xlink:href="#d"
       id="q"
       gradientUnits="userSpaceOnUse"
       gradientTransform="matrix(-1.81984,-0.79736,-1.93348,4.4465,936.828,-345.998)"
       cx="247.734"
       cy="167.441"
       fx="247.734"
       fy="167.441"
       r="57.233" />
    <radialGradient
       xlink:href="#m"
       id="o"
       gradientUnits="userSpaceOnUse"
       gradientTransform="matrix(0.38878,0.00949,-0.03676,1.50675,-8.672,-22.73)"
       cx="231.173"
       cy="171.146"
       fx="231.173"
       fy="171.146"
       r="149.065" />
    <clipPath
       id="s"
       clipPathUnits="userSpaceOnUse">
      <path
         d="M65 177c-18.502 0-33.5 14.998-33.5 33.5.008 7.371 4.131 15.807 11.388 23.526l12.617 13.171H75.02l12.137-13.245c6.636-7.059 11.33-16.117 11.344-23.452 0-18.502-14.998-33.5-33.5-33.5z"
         style="marker:none"
         fill="#fff"
         stroke-width="2"
         id="path116" />
    </clipPath>
    <clipPath
       clipPathUnits="userSpaceOnUse"
       id="clipPath1145-7">
      <path
         id="path1147-3"
         style="display:inline;fill:url(#linearGradient1149);fill-opacity:1;stroke:none;stroke-width:2.58902;stroke-linecap:round;stroke-opacity:1;stop-color:#000000"
         d="m 704.2778,841.11017 c 0,69.08331 -53.578,165.63503 -53.578,165.63503 0,0 -53.578,-96.39289 -53.578,-165.63503 0,-29.5903 23.9877,-53.57798 53.578,-53.57798 29.5903,0 53.578,23.98768 53.578,53.57798 z"
         sodipodi:nodetypes="scsss" />
    </clipPath>
    <inkscape:path-effect
       effect="fillet_chamfer"
       id="path-effect562-7"
       is_visible="true"
       lpeversion="1"
       satellites_param="F,0,0,1,0,10.171695,0,1 @ F,0,0,1,0,32.630977,0,1 @ F,0,0,1,0,24.814453,0,1 @ F,0,0,1,0,16.330078,0,1"
       unit="px"
       method="auto"
       mode="F"
       radius="0"
       chamfer_steps="1"
       flexible="false"
       use_knot_distance="true"
       apply_no_radius="true"
       apply_with_radius="true"
       only_selected="false"
       hide_knots="false"
       nodesatellites_param="F,0,0,1,0,10.171695,0,1 @ F,0,0,1,0,32.630977,0,1 @ F,0,0,1,0,24.814453,0,1 @ F,0,0,1,0,16.330078,0,1" />
    <inkscape:path-effect
       effect="fillet_chamfer"
       id="path-effect566-8"
       is_visible="true"
       lpeversion="1"
       satellites_param="F,0,0,1,0,10.171695,0,1 @ F,0,0,1,0,32.630977,0,1 @ F,0,0,1,0,24.814453,0,1 @ F,0,0,1,0,16.330078,0,1"
       unit="px"
       method="auto"
       mode="F"
       radius="0"
       chamfer_steps="1"
       flexible="false"
       use_knot_distance="true"
       apply_no_radius="true"
       apply_with_radius="true"
       only_selected="false"
       hide_knots="false"
       nodesatellites_param="F,0,0,1,0,10.171695,0,1 @ F,0,0,1,0,32.630977,0,1 @ F,0,0,1,0,24.814453,0,1 @ F,0,0,1,0,16.330078,0,1" />
    <clipPath
       clipPathUnits="userSpaceOnUse"
       id="clipPath1145-7-3">
      <path
         id="path1147-3-6"
         style="display:inline;fill:url(#linearGradient1149);fill-opacity:1;stroke:none;stroke-width:2.58902;stroke-linecap:round;stroke-opacity:1;stop-color:#000000"
         d="m 704.2778,841.11017 c 0,69.08331 -53.578,165.63503 -53.578,165.63503 0,0 -53.578,-96.39289 -53.578,-165.63503 0,-29.5903 23.9877,-53.57798 53.578,-53.57798 29.5903,0 53.578,23.98768 53.578,53.57798 z"
         sodipodi:nodetypes="scsss" />
    </clipPath>
    <inkscape:path-effect
       effect="fillet_chamfer"
       id="path-effect562-7-7"
       is_visible="true"
       lpeversion="1"
       satellites_param="F,0,0,1,0,10.171695,0,1 @ F,0,0,1,0,32.630977,0,1 @ F,0,0,1,0,24.814453,0,1 @ F,0,0,1,0,16.330078,0,1"
       unit="px"
       method="auto"
       mode="F"
       radius="0"
       chamfer_steps="1"
       flexible="false"
       use_knot_distance="true"
       apply_no_radius="true"
       apply_with_radius="true"
       only_selected="false"
       hide_knots="false"
       nodesatellites_param="F,0,0,1,0,10.171695,0,1 @ F,0,0,1,0,32.630977,0,1 @ F,0,0,1,0,24.814453,0,1 @ F,0,0,1,0,16.330078,0,1" />
    <inkscape:path-effect
       effect="fillet_chamfer"
       id="path-effect566-8-5"
       is_visible="true"
       lpeversion="1"
       satellites_param="F,0,0,1,0,10.171695,0,1 @ F,0,0,1,0,32.630977,0,1 @ F,0,0,1,0,24.814453,0,1 @ F,0,0,1,0,16.330078,0,1"
       unit="px"
       method="auto"
       mode="F"
       radius="0"
       chamfer_steps="1"
       flexible="false"
       use_knot_distance="true"
       apply_no_radius="true"
       apply_with_radius="true"
       only_selected="false"
       hide_knots="false"
       nodesatellites_param="F,0,0,1,0,10.171695,0,1 @ F,0,0,1,0,32.630977,0,1 @ F,0,0,1,0,24.814453,0,1 @ F,0,0,1,0,16.330078,0,1" />
  </defs>
  <path
     style="opacity:0.88;fill:none;stroke:url(#n);stroke-width:3;stroke-linecap:round;stroke-linejoin:miter;stroke-opacity:1"
     d="M 65.176,145.144 11.597,43.919"
     id="path121" />
  <g
     transform="translate(-5.26,-0.146)"
     style="display:inline"
     id="g135">
    <path
       style="fill:url(#o);fill-opacity:1;stroke:none;stroke-width:0.75px;stroke-linecap:butt;stroke-linejoin:miter;stroke-opacity:1"
       d="m 77.26,206.147 0.12,85.242 -104.12,38.758 -8,-224 z"
       id="path123"
       sodipodi:nodetypes="ccccc" />
    <path
       style="font-variation-settings:normal;vector-effect:none;fill:none;fill-opacity:1;stroke:#99c1f1;stroke-width:4.5;stroke-linecap:round;stroke-linejoin:miter;stroke-miterlimit:4;stroke-dasharray:none;stroke-dashoffset:0;stroke-opacity:1;stop-color:#000000;opacity:0.5"
       d="M 61.788,207.993 18.583,167.366"
       id="path125" />
    <path
       style="font-variation-settings:normal;opacity:0.2;vector-effect:none;fill:none;fill-opacity:1;stroke:#3584e4;stroke-width:4.5;stroke-linecap:round;stroke-linejoin:miter;stroke-miterlimit:4;stroke-dasharray:none;stroke-dashoffset:0;stroke-opacity:1;stop-color:#000000"
       d="M 51.09,239.053 18.583,234.508"
       id="path127"
       sodipodi:nodetypes="cc" />
    <circle
       style="fill:#ffffff;fill-opacity:0.477471;stroke:none;stroke-width:1.49999;stroke-opacity:1;stop-color:#000000"
       cx="46.830002"
       cy="241.30299"
       r="6.5110002"
       id="circle129" />
    <circle
       style="fill:#ffffff;fill-opacity:0.540577;stroke:none;stroke-width:1.49999;stroke-opacity:1;stop-color:#000000"
       cx="46.745998"
       cy="220.508"
       r="3.0769999"
       id="circle131" />
    <circle
       style="fill:#ffffff;fill-opacity:0.657828;stroke:none;stroke-width:1.49999;stroke-opacity:1;stop-color:#000000"
       cx="28.382"
       cy="178.308"
       r="3.0769999"
       id="circle133" />
    <path
       style="font-variation-settings:normal;vector-effect:none;fill:none;fill-opacity:1;stroke:#62a0ea;stroke-width:4.5;stroke-linecap:round;stroke-linejoin:miter;stroke-miterlimit:4;stroke-dasharray:none;stroke-dashoffset:0;stroke-opacity:1;stop-color:#000000;opacity:0.5"
       d="M 54.745998,273.431 18.583,287.993"
       id="path2489"
       sodipodi:nodetypes="cc" />
    <circle
       style="fill:#ffffff;fill-opacity:0.540577;stroke:none;stroke-width:1.49999;stroke-opacity:1;stop-color:#000000"
       cx="34.745998"
       cy="276.508"
       r="3.0769999"
       id="circle2491" />
    <circle
       style="fill:#ffffff;fill-opacity:0.540577;stroke:none;stroke-width:1.49999;stroke-opacity:1;stop-color:#000000"
       cx="54.745998"
       cy="288.508"
       r="3.0769999"
       id="circle2493" />
  </g>
  <g
     transform="translate(-8.198,0.828)"
     style="display:inline"
     id="g149">
    <path
       style="fill:url(#p);fill-opacity:1;stroke:none;stroke-width:0.75px;stroke-linecap:butt;stroke-linejoin:miter;stroke-opacity:1"
       d="m 176.258,206.147 -0.12,85.242 104.06,29.783 v -216 z"
       id="path137"
       sodipodi:nodetypes="ccccc" />
    <circle
       style="fill:#ffffff;fill-opacity:0.226961;stroke:none;stroke-width:1.49999;stroke-opacity:1;stop-color:#000000"
       cx="226.271"
       cy="99.224998"
       r="3.0769999"
       id="circle139" />
    <path
       style="font-variation-settings:normal;opacity:0.7;vector-effect:none;fill:none;fill-opacity:1;stroke:#f8e45c;stroke-width:4.5;stroke-linecap:round;stroke-linejoin:miter;stroke-miterlimit:4;stroke-dasharray:none;stroke-dashoffset:0;stroke-opacity:1;stop-color:#000000"
       d="m 183.75,211.743 39.444,-26.571"
       id="path141" />
    <path
       style="fill:none;stroke:url(#q);stroke-width:4.5;stroke-linecap:round;stroke-linejoin:miter;stroke-opacity:1"
       d="m 194.82,230.398 30.624,-9.548"
       id="path143" />
    <circle
       style="fill:#ffffff;fill-opacity:0.657828;stroke:none;stroke-width:1.49999;stroke-opacity:1;stop-color:#000000"
       cx="191.254"
       cy="217.77299"
       r="3.0769999"
       id="circle145" />
    <circle
       style="fill:#ffffff;fill-opacity:0.657828;stroke:none;stroke-width:1.49999;stroke-opacity:1;stop-color:#000000"
       cx="215.254"
       cy="243.77299"
       r="3.0769999"
       id="circle147" />
    <path
       style="font-variation-settings:normal;opacity:0.7;vector-effect:none;fill:none;fill-opacity:1;stroke:#f8e45c;stroke-width:4.5;stroke-linecap:round;stroke-linejoin:miter;stroke-miterlimit:4;stroke-dasharray:none;stroke-dashoffset:0;stroke-opacity:1;stop-color:#000000"
       d="m 191.75,265.172 39.444,10.571"
       id="path2495"
       sodipodi:nodetypes="cc" />
  </g>
  <circle
     style="display:inline;fill:#ffffff;fill-opacity:0.477471;stroke:none;stroke-width:1.49999;stroke-opacity:1;stop-color:#000000"
     cx="193"
     cy="274"
     r="6.5110002"
     id="circle129-3" />
  <path
     style="fill:url(#x);fill-opacity:1;stroke:none;stroke-width:0.75px;stroke-linecap:butt;stroke-linejoin:miter;stroke-opacity:1"
     d="M 162,187 H 78 L 8,42 h 224 z"
     id="path169" />
  <g
     style="display:inline;enable-background:new"
     id="g225"
     transform="translate(0,20)">
    <g
       transform="matrix(1.5,0,0,1.5,249,-116)"
       style="display:inline;enable-background:new"
       id="g219">
      <rect
         style="display:inline;fill:#464153;fill-opacity:1;stroke:none;stroke-width:0.25;stroke-linecap:butt;stroke-linejoin:miter;stroke-miterlimit:4;stroke-dasharray:none;stroke-dashoffset:0;stroke-opacity:1;marker:none;marker-start:none;marker-mid:none;marker-end:none;paint-order:normal;enable-background:new"
         width="64"
         height="38"
         x="-118"
         y="254"
         rx="8"
         ry="8"
         id="rect171" />
      <rect
         ry="8"
         rx="8"
         y="212"
         x="-122"
         height="80"
         width="72"
         style="display:inline;fill:url(#y);fill-opacity:1;stroke:none;stroke-width:0.25;stroke-linecap:butt;stroke-linejoin:miter;stroke-miterlimit:4;stroke-dasharray:none;stroke-dashoffset:0;stroke-opacity:1;marker:none;marker-start:none;marker-mid:none;marker-end:none;paint-order:normal;enable-background:new"
         id="rect173" />
      <rect
         style="display:inline;fill:url(#z);fill-opacity:1;stroke:none;stroke-width:0.25;stroke-linecap:butt;stroke-linejoin:miter;stroke-miterlimit:4;stroke-dasharray:none;stroke-dashoffset:0;stroke-opacity:1;marker:none;marker-start:none;marker-mid:none;marker-end:none;paint-order:normal;enable-background:new"
         width="72"
         height="100"
         x="-122"
         y="180"
         rx="8"
         ry="8"
         id="rect175" />
      <rect
         ry="4"
         rx="4"
         y="184"
         x="-118"
         height="92"
         width="64"
         style="display:inline;fill:#241f31;fill-opacity:1;stroke:none;stroke-width:0.25;stroke-linecap:butt;stroke-linejoin:miter;stroke-miterlimit:4;stroke-dasharray:none;stroke-dashoffset:0;stroke-opacity:1;marker:none;marker-start:none;marker-mid:none;marker-end:none;paint-order:normal;enable-background:new"
         id="rect177" />
      <circle
         r="2"
         cy="188"
         cx="-70"
         style="display:inline;fill:#5e5c64;fill-opacity:1;stroke:none;stroke-linecap:round;stroke-linejoin:round;enable-background:new"
         id="circle179" />
      <rect
         ry="1"
         rx="1"
         y="187"
         x="-91"
         height="2"
         width="10"
         style="display:inline;fill:#5e5c64;fill-opacity:1;stroke:none;stroke-width:1;stroke-linecap:round;stroke-linejoin:round;enable-background:new"
         id="rect181" />
      <g
         style="display:inline;stroke-width:0.707107;enable-background:new"
         id="g189">
        <path
           style="opacity:1;fill:#5e5c64;fill-opacity:1;stroke:none;stroke-width:0.707105;stroke-linecap:round;stroke-linejoin:round"
           d="m 46,180 h 2 v 4 h -2 z"
           transform="matrix(2,0,0,1,-204,0)"
           id="path183" />
        <path
           style="opacity:1;fill:#77767b;fill-opacity:1;stroke:none;stroke-width:0.707105;stroke-linecap:round;stroke-linejoin:round"
           d="m 46,276 h 2 v 4 h -2 z"
           transform="matrix(2,0,0,1,-204,0)"
           id="path185" />
        <path
           style="opacity:1;fill:#3d3846;fill-opacity:1;stroke:none;stroke-width:0.707105;stroke-linecap:round;stroke-linejoin:round"
           transform="matrix(2,0,0,-1,-204,0)"
           d="m 46,-292 h 2 v 12 h -2 z"
           id="path187" />
      </g>
      <g
         style="display:inline;stroke-width:0.707107;enable-background:new"
         id="g197">
        <path
           style="opacity:1;fill:#5e5c64;fill-opacity:1;stroke:none;stroke-width:0.707105;stroke-linecap:round;stroke-linejoin:round"
           d="m 80,180 h 2 v 4 h -2 z"
           transform="matrix(2,0,0,1,-224,0)"
           id="path191" />
        <path
           style="opacity:1;fill:#77767b;fill-opacity:1;stroke:none;stroke-width:0.707105;stroke-linecap:round;stroke-linejoin:round"
           d="m 80,276 h 2 v 4 h -2 z"
           transform="matrix(2,0,0,1,-224,0)"
           id="path193" />
        <path
           transform="matrix(2,0,0,-1,-224,0)"
           style="opacity:1;fill:#3d3846;fill-opacity:1;stroke:none;stroke-width:0.707105;stroke-linecap:round;stroke-linejoin:round"
           d="m 80,-292 h 2 v 12 h -2 z"
           id="path195" />
      </g>
      <rect
         style="display:inline;fill:#000000;fill-opacity:1;stroke:none;stroke-width:1;stroke-linecap:round;stroke-linejoin:round;enable-background:new"
         width="10"
         height="5"
         x="-91"
         y="283"
         rx="2.5"
         ry="2.5"
         id="rect199" />
      <path
         d="m -90.95,285 a 2.495,2.495 0 0 0 2.45,3 h 5 a 2.495,2.495 0 0 0 2.45,-3 2.492,2.492 0 0 1 -2.45,2 h -5 a 2.492,2.492 0 0 1 -2.45,-2 z"
         style="display:inline;fill:#5e5c64;fill-opacity:1;stroke:none;stroke-width:1;stroke-linecap:round;stroke-linejoin:round;enable-background:new"
         id="path201" />
      <g
         style="display:inline;enable-background:new"
         id="g217">
        <path
           style="display:inline;fill:#000000;fill-opacity:1;stroke:none;stroke-width:1;stroke-linecap:round;stroke-linejoin:round;enable-background:new"
           d="m 54.5,127.5 a 1.5,1.5 0 0 0 -1.5,1.5 1.5,1.5 0 0 0 1.5,1.5 1.5,1.5 0 0 0 1.5,-1.5 1.5,1.5 0 0 0 -1.5,-1.5 z m 4,0 a 1.5,1.5 0 0 0 -1.5,1.5 1.5,1.5 0 0 0 1.5,1.5 1.5,1.5 0 0 0 1.5,-1.5 1.5,1.5 0 0 0 -1.5,-1.5 z m 4,0 a 1.5,1.5 0 0 0 -1.5,1.5 1.5,1.5 0 0 0 1.5,1.5 1.5,1.5 0 0 0 1.5,-1.5 1.5,1.5 0 0 0 -1.5,-1.5 z"
           transform="translate(-158,156.5)"
           id="path203" />
        <g
           transform="translate(-123,0.5)"
           id="g211">
          <circle
             r="1.5"
             cy="285"
             cx="46.5"
             style="display:inline;fill:#000000;fill-opacity:1;stroke:none;stroke-width:1;stroke-linecap:round;stroke-linejoin:round;enable-background:new"
             id="circle205" />
          <circle
             style="display:inline;fill:#000000;fill-opacity:1;stroke:none;stroke-width:1;stroke-linecap:round;stroke-linejoin:round;enable-background:new"
             cx="50.5"
             cy="285"
             r="1.5"
             id="circle207" />
          <circle
             r="1.5"
             cy="285"
             cx="54.5"
             style="display:inline;fill:#000000;fill-opacity:1;stroke:none;stroke-width:1;stroke-linecap:round;stroke-linejoin:round;enable-background:new"
             id="circle209" />
        </g>
        <path
           style="display:inline;fill:#5e5c64;fill-opacity:1;stroke:none;stroke-width:1;stroke-linecap:round;stroke-linejoin:round;enable-background:new"
           d="M 55.914,128.498 A 1.5,1.5 0 0 1 54.5,129.5 1.5,1.5 0 0 1 53.086,128.502 1.5,1.5 0 0 0 53,129 a 1.5,1.5 0 0 0 1.5,1.5 1.5,1.5 0 0 0 1.5,-1.5 1.5,1.5 0 0 0 -0.086,-0.502 z m 4,0 A 1.5,1.5 0 0 1 58.5,129.5 1.5,1.5 0 0 1 57.086,128.502 1.5,1.5 0 0 0 57,129 a 1.5,1.5 0 0 0 1.5,1.5 1.5,1.5 0 0 0 1.5,-1.5 1.5,1.5 0 0 0 -0.086,-0.502 z m 4,0 A 1.5,1.5 0 0 1 62.5,129.5 1.5,1.5 0 0 1 61.086,128.502 1.5,1.5 0 0 0 61,129 a 1.5,1.5 0 0 0 1.5,1.5 1.5,1.5 0 0 0 1.5,-1.5 1.5,1.5 0 0 0 -0.086,-0.502 z"
           transform="translate(-158,156.5)"
           id="path213" />
        <path
           d="M 74.914,284.498 A 1.5,1.5 0 0 1 73.5,285.5 1.5,1.5 0 0 1 72.086,284.502 1.5,1.5 0 0 0 72,285 a 1.5,1.5 0 0 0 1.5,1.5 1.5,1.5 0 0 0 1.5,-1.5 1.5,1.5 0 0 0 -0.086,-0.502 z m 4,0 A 1.5,1.5 0 0 1 77.5,285.5 1.5,1.5 0 0 1 76.086,284.502 1.5,1.5 0 0 0 76,285 a 1.5,1.5 0 0 0 1.5,1.5 1.5,1.5 0 0 0 1.5,-1.5 1.5,1.5 0 0 0 -0.086,-0.502 z m 4,0 A 1.5,1.5 0 0 1 81.5,285.5 1.5,1.5 0 0 1 80.086,284.502 1.5,1.5 0 0 0 80,285 a 1.5,1.5 0 0 0 1.5,1.5 1.5,1.5 0 0 0 1.5,-1.5 1.5,1.5 0 0 0 -0.086,-0.502 z"
           style="display:inline;fill:#5e5c64;fill-opacity:1;stroke:none;stroke-width:1;stroke-linecap:round;stroke-linejoin:round;enable-background:new"
           transform="translate(-150,0.5)"
           id="path215" />
      </g>
    </g>
    <path
       style="display:inline;fill:url(#A);fill-opacity:1;stroke:none;stroke-width:0.25;stroke-linecap:butt;stroke-linejoin:miter;stroke-miterlimit:4;stroke-dasharray:none;stroke-dashoffset:0;stroke-opacity:1;marker:none;marker-start:none;marker-mid:none;marker-end:none;paint-order:normal;enable-background:new"
       d="m 38.5,202 h 64 v 76 h -64 z"
       transform="matrix(1.5,0,0,1.5,14.25,-131)"
       id="path221" />
    <path
       style="display:inline;fill:url(#B);fill-opacity:1;stroke:none;stroke-width:0.25;stroke-linecap:butt;stroke-linejoin:miter;stroke-miterlimit:4;stroke-dasharray:none;stroke-dashoffset:0;stroke-opacity:1;marker:none;marker-start:none;marker-mid:none;marker-end:none;paint-order:normal;enable-background:new"
       d="m 38.5,202 h 64 v 76 h -64 z"
       transform="matrix(1.5,0,0,1.5,14.25,-131)"
       id="path223" />
  </g>
  <path
     style="fill:none;stroke:url(#C);stroke-width:4.5;stroke-linecap:round;stroke-linejoin:miter;stroke-opacity:1"
     d="M 147.513,165.81 183.098,37.103"
     id="path227" />
  <circle
     style="fill:#ffffff;fill-opacity:0.226961;stroke:none;stroke-width:1.49999;stroke-opacity:1;stop-color:#000000"
     cx="94.790001"
     cy="129.69101"
     r="3.0769999"
     id="circle229" />
  <circle
     style="fill:#ffffff;fill-opacity:0.657828;stroke:none;stroke-width:1.49999;stroke-opacity:1;stop-color:#000000"
     cx="65.068001"
     cy="98.793999"
     r="3.0769999"
     id="circle231" />
  <path
     style="fill:none;stroke:url(#D);stroke-width:4.5;stroke-linecap:round;stroke-linejoin:miter;stroke-opacity:1"
     d="M 91.18,165.648 57.643,36.393"
     id="path233" />
  <path
     style="fill:none;stroke:#f8e45c;stroke-width:4.5;stroke-linecap:round;stroke-linejoin:miter;stroke-miterlimit:4;stroke-dasharray:none;stroke-opacity:1"
     d="M 75.551,162.844 43.826,84.826"
     id="path235" />
  <path
     style="fill:#f5c211;stroke:url(#E);stroke-width:4.5;stroke-linecap:round;stroke-linejoin:miter;stroke-miterlimit:4;stroke-dasharray:none;stroke-opacity:1"
     d="M 105.182,138.243 99.732,44.49"
     id="path237" />
  <circle
     style="fill:#ffffff;fill-opacity:0.477471;stroke:none;stroke-width:1.49999;stroke-opacity:1;stop-color:#000000"
     cx="118.607"
     cy="102.654"
     r="6.5110002"
     id="circle239" />
  <circle
     style="fill:#ffffff;fill-opacity:0.657828;stroke:none;stroke-width:1.49999;stroke-opacity:1;stop-color:#000000"
     cx="139.522"
     cy="132.644"
     r="3.0769999"
     id="circle241" />
  <circle
     style="fill:#ffffff;fill-opacity:0.657828;stroke:none;stroke-width:1.49999;stroke-opacity:1;stop-color:#000000"
     cx="114.248"
     cy="164.297"
     r="3.0769999"
     id="circle243" />
</svg>
